<svg width="1184" height="328" viewBox="0 0 1184 328" fill="none" xmlns="http://www.w3.org/2000/svg">
<g filter="url(#filter0_bi_3_3090)">
<path d="M0 286.18V4.43333C0 1.98487 1.9849 0 4.43336 0H1142.16C1143.34 0 1144.47 0.469799 1145.3 1.30549L1182.53 38.7027C1183.36 39.5336 1183.82 40.6582 1183.82 41.8306V323.567C1183.82 326.015 1181.84 328 1179.39 328H41.3527C40.1672 328 39.0312 327.525 38.1982 326.682L1.27884 289.295C0.45946 288.465 0 287.346 0 286.18Z" fill="#141416"/>
<path d="M0.660094 286.18V4.43333C0.660094 2.34944 2.34945 0.660094 4.43336 0.660094H1142.16C1143.16 0.660094 1144.12 1.05994 1144.83 1.77122L1182.06 39.1684C1182.77 39.8756 1183.16 40.8327 1183.16 41.8306V323.567C1183.16 325.651 1181.47 327.34 1179.39 327.34H41.3527C40.3437 327.34 39.3768 326.936 38.6679 326.218L1.74852 288.831C1.05114 288.125 0.660094 287.172 0.660094 286.18Z" stroke="url(#paint0_linear_3_3090)" stroke-width="1.32019"/>
</g>
<defs>
<filter id="filter0_bi_3_3090" x="-26.4038" y="-26.4038" width="1236.63" height="380.808" filterUnits="userSpaceOnUse" color-interpolation-filters="sRGB">
<feFlood flood-opacity="0" result="BackgroundImageFix"/>
<feGaussianBlur in="BackgroundImageFix" stdDeviation="13.2019"/>
<feComposite in2="SourceAlpha" operator="in" result="effect1_backgroundBlur_3_3090"/>
<feBlend mode="normal" in="SourceGraphic" in2="effect1_backgroundBlur_3_3090" result="shape"/>
<feColorMatrix in="SourceAlpha" type="matrix" values="0 0 0 0 0 0 0 0 0 0 0 0 0 0 0 0 0 0 127 0" result="hardAlpha"/>
<feOffset/>
<feGaussianBlur stdDeviation="2.64038"/>
<feComposite in2="hardAlpha" operator="arithmetic" k2="-1" k3="1"/>
<feColorMatrix type="matrix" values="0 0 0 0 1 0 0 0 0 0.937667 0 0 0 0 0.716667 0 0 0 0.25 0"/>
<feBlend mode="normal" in2="shape" result="effect2_innerShadow_3_3090"/>
</filter>
<linearGradient id="paint0_linear_3_3090" x1="-48.3587" y1="-18.0959" x2="-16.5237" y2="465.057" gradientUnits="userSpaceOnUse">
<stop stop-color="#E3955C"/>
<stop offset="1" stop-color="white"/>
</linearGradient>
</defs>
</svg>
