<svg width="141" height="111" viewBox="0 0 141 111" fill="none" xmlns="http://www.w3.org/2000/svg">
<path d="M128.881 62.2033C130.62 62.8401 131.958 63.319 132.6 61.5732C133.237 59.8339 132.101 59.1412 130.359 58.4998L24.255 18.2944C22.512 17.6566 20.5845 18.5509 19.943 20.293C19.3053 22.036 20.1959 23.9626 21.9342 24.6032L128.881 62.2033Z" fill="#EE9047"/>
<path d="M129.248 60.9043L22.9338 21.9494C22.7205 21.8732 22.4856 21.9806 22.4048 22.1967C22.324 22.4129 22.4351 22.6487 22.6512 22.7295L128.962 61.6798C129.18 61.7569 129.414 61.6495 129.495 61.4334C129.571 61.22 129.46 60.9842 129.248 60.9043Z" fill="#192632"/>
<path d="M23.8508 28.3907L30.4638 30.5307C30.2697 31.191 24.6008 38.2999 24.1442 55.4571C17.7499 44.8896 23.8508 28.3907 23.8508 28.3907Z" fill="#484946"/>
<path d="M27.9651 17.7321L32.0356 6.0754L39.3223 3.54656L41.3524 7.57124C41.0576 8.04939 39.4365 10.7186 35.0387 19.663L27.9651 17.7321Z" fill="#484946"/>
<path d="M24.1005 28.9752L25.4781 29.5151C25.3454 29.9584 20.9644 41.582 23.4624 53.2749C19.1098 46.078 24.1005 28.9752 24.1005 28.9752Z" fill="#6C6567"/>
<path d="M29.8445 30.8737C30.5773 31.1408 31.3857 30.7655 31.6564 30.0336L35.1747 20.4438C35.4417 19.711 35.0673 18.8989 34.3382 18.6328L28.9125 16.6397C28.1797 16.3727 27.3722 16.7442 27.1052 17.477L23.5824 27.0696C23.3154 27.8024 23.6906 28.6108 24.4188 28.8806L29.8445 30.8737Z" fill="#484946"/>
<path d="M25.8875 28.2825L25.2344 28.043C24.6213 27.8173 24.3085 27.1384 24.5305 26.5243L27.4762 18.5087C27.6973 17.8983 28.3771 17.5818 28.9903 17.8076L29.6433 18.0471L25.8875 28.2825Z" fill="#6C6567"/>
<path d="M38.2925 4.04006L33.5788 8.51646L33.4894 8.63999L29.6412 16.87C29.5428 17.0779 29.6326 17.3203 29.8367 17.4178C30.0409 17.5153 30.2907 17.4273 30.3854 17.2185L34.2033 9.06364L38.8615 4.63653C39.0259 4.48031 39.0352 4.21903 38.8752 4.05376C38.719 3.8894 38.4614 3.88105 38.2925 4.04006Z" fill="#192632"/>
<path d="M31.479 72.9707L33.1329 77.2794L49.023 80.6598L44.6571 84.6362H30.4209L24.9892 82.0502L23.9006 84.6362H21.3185L21.1504 72.9707H31.479Z" fill="#2A2A27"/>
<path d="M12.8793 72.9707L14.5332 77.2794L30.4195 80.6598L26.0497 84.6362H11.8174L6.38953 82.0502L5.29709 84.6362H2.71112L2.54688 72.9707H12.8793Z" fill="#10283C"/>
<path d="M24.5647 110.82L0 86.8631L32.9834 63.6696L38.3693 73.7423L65.4016 48.9102L74.8554 54.338L93.893 51.7215L128.909 87.0961L120.081 91.0801L130.074 111L24.5647 110.82Z" fill="#10283C"/>
<path d="M24.5642 110.821L8.25391 94.9158L29.6941 67.8262C31.5772 72.3526 34.5413 76.3098 38.2656 79.3771L24.5642 110.821Z" fill="#5579A3"/>
<path d="M86.7673 56.4159C86.7673 72.8255 73.4784 86.122 57.0956 86.122C40.7089 86.122 27.4238 72.8255 27.4238 56.4159C27.4238 40.0063 40.7089 26.7021 57.0956 26.7021C73.4784 26.7021 86.7673 40.0063 86.7673 56.4159Z" fill="#F0AE1C"/>
<path d="M75.1311 71.2402C72.4611 74.3992 69.0004 76.8591 65.0508 78.3258V83.1349C70.9408 81.7025 75.9867 78.1158 79.3099 73.2571L75.1311 71.2402Z" fill="#EE871D"/>
<path d="M78.6525 56.4164C78.6525 68.3378 69.0001 78.0017 57.0978 78.0017C45.1916 78.0017 35.543 68.3378 35.543 56.4164C35.543 44.495 45.1916 34.8311 57.0978 34.8311C69.0001 34.8311 78.6525 44.495 78.6525 56.4164Z" fill="#F0AE1C"/>
<path d="M40.2621 59.9224C40.2621 49.082 49.0437 40.2927 59.8727 40.2927C65.354 40.2927 70.3005 42.5426 73.8605 46.1675C70.4495 40.373 64.1622 36.4883 56.962 36.4883C46.1292 36.4883 37.3477 45.2775 37.3477 56.1217C37.3477 61.4847 39.4982 66.3395 42.9741 69.8843C41.2552 66.9622 40.2621 63.5588 40.2621 59.9224Z" fill="#EE871D"/>
<path d="M32.5434 60.5074C32.5434 45.0642 45.0492 32.5431 60.4695 32.5431C68.2274 32.5431 75.2442 35.7134 80.3054 40.8281C75.313 33.223 66.7224 28.1924 56.9515 28.1924C41.5312 28.1924 29.0254 40.7135 29.0254 56.1567C29.0254 63.8344 32.1156 70.7825 37.1156 75.836C34.2279 71.4356 32.5434 66.1721 32.5434 60.5074Z" fill="#F3D942"/>
<path d="M105.572 71.8516C105.572 71.8516 104.582 64.193 104.216 64.0861C103.853 63.9791 92.9092 60.4268 92.9092 60.4268L76.4576 45.1631L70.8502 77.2794L69.4598 76.2137L65.4032 78.8723L53.012 80.5759L38.6039 78.6087L24.5664 110.821H95.2048L111.324 78.731C110.9 78.8723 105.572 71.8516 105.572 71.8516Z" fill="#10283C"/>
<path d="M111.322 78.8262C111.291 79.3686 106.616 90.7323 106.616 90.7323L112.498 97.8141L120.081 110.82L92.8344 111L92.0781 85.2815L111.322 78.8262Z" fill="#10283C"/>
<path d="M112.262 97.5244L111.502 96.6191H111.506L112.262 97.5244Z" fill="#513929"/>
<path d="M112.261 97.5244H104.492L104.213 96.6191H111.501L112.261 97.5244Z" fill="#506179"/>
<path d="M114.737 101.65L114.168 100.684H114.172L114.737 101.65Z" fill="#513929"/>
<path d="M115.26 102.555H106.273L105.887 100.684H114.168L114.737 101.65L115.26 102.555Z" fill="#506179"/>
<path d="M111.294 78.9713H110.9L111.324 78.8262L111.294 78.9713Z" fill="#604332"/>
<path d="M56.3223 110.905V110.874L66.4942 110.893L56.3223 110.905Z" fill="white"/>
<path d="M66.4942 110.893L56.3223 110.874V110.82H92.8275V110.859L66.4942 110.893Z" fill="#513929"/>
<path d="M92.8275 110.82H56.3223V108.062H92.7473L92.8275 110.82Z" fill="#506179"/>
<path d="M92.8283 110.859V110.82L92.748 108.062H118.474L120.082 110.82L92.8283 110.859Z" fill="#506179"/>
<path d="M48.6466 110.821H45.1172C45.2929 110.11 46.4121 97.5241 46.4121 97.5241L53.7842 96.6188L57.9477 89.7051H65.4802L58.7498 90.3774L54.7429 97.5241L48.2035 100.003L48.6466 110.821Z" fill="#505C6F"/>
<path d="M38.6016 88.1617L36.707 82.9554L39.7705 85.5604L50.8783 85.6254L65.4009 78.8721L52.1579 87.329L38.6016 88.1617Z" fill="#506179"/>
<path d="M36.7058 100.683L30.3574 97.5241L32.9205 91.6417L36.7058 96.1643L45.1169 89.7051L56.3202 91.6417L46.4003 91.4125L36.7058 100.683Z" fill="#506179"/>
<path d="M111.323 78.8264L111.285 78.8112L111.289 78.8035L111.323 78.8264ZM104.215 64.0861C103.852 63.9791 92.9617 60.4459 92.9082 60.4268L104.215 64.0861Z" fill="#513929"/>
<path d="M111.283 78.8112L85.8593 68.8225L76.4551 45.1631L92.9067 60.4268C92.9602 60.4459 103.85 63.9791 104.213 64.0861L103.315 72.7683L111.287 78.8035L111.283 78.8112Z" fill="#506179"/>
<path d="M92.7472 108.062H63.87C63.6332 107.008 72.2887 85.3885 72.2887 85.3885C72.2887 85.3885 75.3216 87.4473 76.2269 87.4473C76.3453 87.4473 76.4255 87.4129 76.456 87.3289C78.5378 82.0424 80.3445 79.2349 85.8602 68.8223L104.214 76.0339L102.052 81.9354L92.0788 85.2815L92.7472 108.062Z" fill="#506179"/>
<path d="M105.886 108.063H92.7466L92.0781 85.2816L102.051 81.9355L98.4915 91.6415L105.886 108.063Z" fill="#506179"/>
<path d="M64.0262 55.5242V54.141C64.0262 50.8013 61.6307 48.0028 58.455 47.3657V43.5361H55.6694V47.3657C52.4937 48.0092 50.0982 50.8013 50.0982 54.141C50.0982 56.9427 51.9005 59.421 54.5732 60.3047L58.6678 61.6591C60.2025 62.1682 61.2342 63.5899 61.2342 65.2005C61.2342 67.4866 59.361 69.3502 57.0558 69.3502C54.7538 69.3502 52.8774 67.4866 52.8774 65.2005V63.8172H50.0918V65.2005C50.0918 68.5369 52.4873 71.3354 55.663 71.9758V75.8053H58.4486V71.9758C61.6243 71.329 64.0198 68.5369 64.0198 65.2005C64.0198 62.3956 62.2207 59.9173 59.5448 59.0335L55.4534 57.6823C53.9188 57.17 52.8838 55.7515 52.8838 54.141C52.8838 51.8516 54.7602 49.9912 57.0622 49.9912C59.3674 49.9912 61.2406 51.8516 61.2406 54.141V55.5242H64.0262Z" fill="#192632"/>
</svg>
