<svg width="46" height="32" viewBox="0 0 46 32" fill="none" xmlns="http://www.w3.org/2000/svg">
<path d="M10.1347 25.3196C20.1385 29.1545 28.6518 29.9015 38.2992 23.9323C38.2284 24.0365 36.3201 26.8136 31.3017 28.2369C32.3619 29.6602 33.8109 31.2917 33.8109 31.2917C37.0269 31.2917 40.1722 30.3891 42.8934 28.6534C45.0139 27.2648 46.2154 24.8695 45.968 22.3702C45.5439 18.1002 44.519 13.9345 42.9287 9.94243C40.9143 4.73529 36.0727 1.12495 30.4536 0.604192C29.9588 0.569462 29.6054 0.569462 29.3934 0.569462L28.828 1.12484C35.2953 2.93002 38.5113 5.74186 38.5819 5.84606C28.6512 0.916562 16.9182 0.847204 6.91674 5.63778C6.91674 5.63778 10.0974 2.54818 17.1301 0.916562L16.706 0.5C15.9639 0.5 15.257 0.569461 14.515 0.67355C9.31987 1.54141 4.97304 5.04756 3.09996 9.87286C1.47426 14.0386 0.414076 18.4126 0.025358 22.8561C-0.18668 25.2166 0.944223 27.5426 2.92328 28.8964C5.53844 30.5974 8.6484 31.5 11.7937 31.5C11.7937 31.5 13.0659 29.8684 14.3383 28.4104C9.56726 27.0218 7.62357 24.2447 7.58821 24.1405L8.48609 24.5909C9.02285 24.8603 9.57314 25.1043 10.1347 25.3196ZM15.6812 22.3007C13.384 22.2312 11.5817 20.322 11.6524 18.0308C11.7231 15.8785 13.4901 14.1428 15.6812 14.0733C17.9784 14.1428 19.7807 16.052 19.71 18.3432C19.604 20.4956 17.8723 22.2313 15.6812 22.3007ZM30.1001 22.3007C27.8029 22.2312 26.0006 20.322 26.0713 18.0308C26.142 15.8785 27.909 14.1428 30.1001 14.0733C32.3973 14.1428 34.1996 16.052 34.1289 18.3432C34.0583 20.4956 32.2912 22.2313 30.1001 22.3007Z" fill="white"/>
</svg>
