<svg width="487" height="5" viewBox="0 0 487 5" fill="none" xmlns="http://www.w3.org/2000/svg">
<path fill-rule="evenodd" clip-rule="evenodd" d="M486.366 0.521213C486.366 0.521213 463.588 0.540661 427.876 0.613438C403.587 0.661257 373.325 0.724095 340.185 0.826212C324.487 0.8753 308.145 0.931343 291.501 1.00882C275.47 1.08051 259.155 1.1599 242.856 1.26909C229.841 1.35479 216.835 1.4522 203.994 1.57731C184.031 1.77102 164.464 2.01415 145.814 2.25087C125.031 2.51367 105.415 2.79164 87.7004 3.04991C35.989 3.80603 0.613704 4.39647 0.613704 4.39647C0.613704 4.39647 36.3165 4.42077 88.3924 4.34889C106.231 4.32352 125.976 4.28748 146.862 4.21785C165.605 4.15626 185.263 4.08374 205.264 3.96134C218.129 3.88136 231.127 3.76951 244.124 3.6495C260.4 3.49699 276.662 3.3174 292.634 3.13468C309.218 2.94527 325.482 2.74298 341.099 2.54044C374.066 2.11516 404.139 1.69756 428.273 1.35907C463.761 0.86473 486.366 0.521213 486.366 0.521213Z" fill="url(#paint0_linear_3_3342)"/>
<defs>
<linearGradient id="paint0_linear_3_3342" x1="273.148" y1="2.61463" x2="273.05" y2="-1.17148" gradientUnits="userSpaceOnUse">
<stop stop-color="#8F5534"/>
<stop offset="1" stop-color="#F59159"/>
</linearGradient>
</defs>
</svg>
