<svg width="115" height="74" viewBox="0 0 115 74" fill="none" xmlns="http://www.w3.org/2000/svg">
<path d="M58.0269 0.000554575C57.6287 -0.0114232 57.2574 0.171238 57.0178 0.488648C54.4336 3.98914 50.6367 9.16053 47.4775 14.7032C44.3154 20.2459 41.7372 26.145 41.7611 31.3583C41.818 40.4734 49.0286 47.8816 57.982 47.8816C66.9384 47.8816 74.2059 40.4734 74.2059 31.3523C74.2059 26.151 71.6875 20.3268 68.5584 14.82C65.4352 9.31325 61.6442 4.14186 58.9492 0.488648C58.7276 0.198188 58.3922 0.0185216 58.0269 0.000554575ZM39.2877 3.57292C36.982 3.57292 35.0865 5.4654 35.0865 7.76812C35.0865 10.0649 36.982 11.9573 39.2877 11.9573C41.5905 11.9573 43.48 10.0649 43.48 7.76812C43.48 5.4654 41.5905 3.57292 39.2877 3.57292ZM39.2877 5.97146C40.2939 5.97146 41.0844 6.759 41.0844 7.76812C41.0844 8.76826 40.2939 9.56179 39.2877 9.56179C38.2786 9.56179 37.4881 8.76826 37.4881 7.76812C37.4881 6.759 38.2786 5.97146 39.2877 5.97146ZM78.9251 9.99598C78.2633 10.008 77.7333 10.5529 77.7453 11.2117V11.9304C77.7393 12.5981 78.2753 13.1401 78.9431 13.1401C79.6078 13.1401 80.1528 12.5981 80.1408 11.9304V11.2117C80.1528 10.535 79.6018 9.984 78.9251 9.99598ZM76.0504 12.8976C75.3917 12.8976 74.8527 13.4336 74.8527 14.0924C74.8527 14.7571 75.3917 15.2961 76.0504 15.2961H76.7721C77.4399 15.2961 77.9759 14.7571 77.9759 14.0924C77.9759 13.4336 77.4399 12.8976 76.7721 12.8976H76.0504ZM81.111 12.8976C80.4463 12.8976 79.9073 13.4336 79.9073 14.0924C79.9073 14.7571 80.4463 15.2961 81.111 15.2961H81.8327C82.4945 15.2961 83.0305 14.7571 83.0305 14.0924C83.0305 13.4336 82.4945 12.8976 81.8327 12.8976H81.111ZM78.9251 15.0446C78.2633 15.0566 77.7333 15.6016 77.7453 16.2603V16.982C77.7393 17.6468 78.2753 18.1888 78.9431 18.1888C79.6078 18.1888 80.1468 17.6468 80.1408 16.982V16.2603C80.1528 15.5836 79.6018 15.0326 78.9251 15.0446ZM33.3138 37.7574C32.6551 37.7634 32.128 38.3084 32.134 38.9672V39.6918C32.1161 40.3656 32.6611 40.9255 33.3318 40.9255C34.0115 40.9255 34.5565 40.3656 34.5296 39.6918V38.9672C34.5446 38.2964 33.9936 37.7454 33.3138 37.7574ZM81.8387 40.3027C79.536 40.3027 77.6465 42.1952 77.6465 44.4919C77.6465 46.7946 79.536 48.6871 81.8387 48.6871C84.1444 48.6871 86.0369 46.7946 86.0369 44.4919C86.0369 42.1952 84.1444 40.3027 81.8387 40.3027ZM30.4482 40.659C29.7744 40.653 29.2324 41.189 29.2324 41.8538C29.2324 42.5186 29.7744 43.0576 30.4482 43.0516H31.1698C31.8346 43.0576 32.3796 42.5186 32.3796 41.8538C32.3796 41.189 31.8346 40.653 31.1698 40.659H30.4482ZM35.5028 40.659C34.838 40.653 34.293 41.189 34.293 41.8538C34.293 42.5186 34.838 43.0576 35.5028 43.0516H36.2244C36.8892 43.0576 37.4402 42.5186 37.4402 41.8538C37.4402 41.189 36.8892 40.653 36.2244 40.659H35.5028ZM81.8387 42.6982C82.8478 42.6982 83.6353 43.4858 83.6353 44.4919C83.6353 45.498 82.8478 46.2885 81.8387 46.2885C80.8296 46.2885 80.042 45.498 80.042 44.4919C80.042 43.4917 80.8296 42.6982 81.8387 42.6982ZM33.3138 42.806C32.6551 42.812 32.128 43.357 32.134 44.0158V44.7434C32.1161 45.4142 32.6611 45.9771 33.3318 45.9771C34.0115 45.9771 34.5565 45.4142 34.5296 44.7434V44.0158C34.5446 43.345 33.9936 42.794 33.3138 42.806Z" fill="url(#paint0_linear_3_3044)"/>
<path d="M15.5501 51.0078C10.4356 51.0078 1.29659 53.3255 1.29659 53.3255C-0.248538 53.7178 0.326394 56.0265 1.87152 55.6522C1.87152 55.6522 11.2052 53.4004 15.5501 53.4004C19.895 53.4004 24.4017 55.6821 29.5221 55.6821C34.6396 55.6821 39.1433 53.4004 43.4882 53.4004C47.8361 53.4004 52.3398 55.6821 57.4632 55.6821C62.5777 55.6821 67.0814 53.4004 71.4293 53.4004C75.7742 53.4004 80.2778 55.6821 85.4013 55.6821C90.5158 55.6821 95.0224 53.4004 99.3674 53.4004C103.712 53.4004 113.046 55.6522 113.046 55.6522C113.693 55.8169 114.355 55.4276 114.513 54.7808C114.672 54.134 114.274 53.4782 113.627 53.3255C113.627 53.3255 104.482 51.0078 99.3674 51.0078C94.2439 51.0078 89.7463 53.2896 85.4013 53.2896C81.0474 53.2896 76.5498 51.0078 71.4293 51.0078C66.3058 51.0078 61.8082 53.2896 57.4632 53.2896C53.1093 53.2896 48.6117 51.0078 43.4882 51.0078C38.3737 51.0078 33.8701 53.2896 29.5221 53.2896C25.1772 53.2896 20.6736 51.0078 15.5501 51.0078ZM1.40739 60.9344C-0.176671 60.9463 -0.176671 63.309 1.40739 63.3269H13.8762C15.4543 63.309 15.4543 60.9463 13.8762 60.9344H1.40739ZM18.0265 60.9344C16.4484 60.9463 16.4484 63.309 18.0265 63.3269H22.1828C23.7668 63.309 23.7668 60.9463 22.1828 60.9344H18.0265ZM26.3391 60.9344C24.755 60.9463 24.755 63.309 26.3391 63.3269H38.8079C40.392 63.309 40.392 60.9463 38.8079 60.9344H26.3391ZM42.9582 60.9344C41.3801 60.9463 41.3801 63.309 42.9582 63.3269H47.1145C48.6955 63.309 48.6955 60.9463 47.1145 60.9344H42.9582ZM51.2707 60.9344C49.6867 60.9463 49.6867 63.309 51.2707 63.3269H63.7396C65.3206 63.309 65.3206 60.9463 63.7396 60.9344H51.2707ZM67.8959 60.9344C66.3118 60.9463 66.3118 63.309 67.8959 63.3269H72.0521C73.6272 63.309 73.6272 60.9463 72.0521 60.9344H67.8959ZM76.2024 60.9344C74.6184 60.9463 74.6184 63.309 76.2024 63.3269H88.6712C90.2523 63.309 90.2523 60.9463 88.6712 60.9344H76.2024ZM92.8275 60.9344C91.2435 60.9463 91.2435 63.309 92.8275 63.3269H96.9838C98.5589 63.309 98.5589 60.9463 96.9838 60.9344H92.8275ZM101.134 60.9344C99.556 60.9463 99.556 63.309 101.134 63.3269H113.603C115.184 63.309 115.184 60.9463 113.603 60.9344H101.134ZM100.155 68.3696C98.5349 68.4085 97.1964 69.1451 96.0106 69.756C94.7529 70.4088 93.663 70.9238 92.7048 70.9118C91.8543 70.8969 90.944 70.4148 89.8181 69.7799C88.6952 69.1451 87.3567 68.3696 85.6499 68.3696C83.94 68.3696 82.6255 69.1691 81.5325 69.8039C80.4366 70.4327 79.5562 70.9118 78.6159 70.9118C77.6697 70.9118 76.7953 70.4327 75.6934 69.8039C74.6004 69.1631 73.2858 68.3696 71.582 68.3696C69.8692 68.3696 68.5546 69.1691 67.4557 69.8039C66.3597 70.4327 65.4883 70.9118 64.5391 70.9118C63.5988 70.9118 62.7185 70.4327 61.6255 69.8039C60.5295 69.1631 59.215 68.3696 57.5052 68.3696C55.7923 68.3696 54.4778 69.1691 53.3848 69.8039C52.2918 70.4327 51.4115 70.9118 50.4682 70.9118C49.522 70.9118 48.6476 70.4327 47.5546 69.8039C46.4527 69.1631 45.1411 68.3696 43.4283 68.3696C41.7215 68.3696 40.4099 69.1691 39.314 69.8039C38.215 70.4327 37.3406 70.9118 36.3944 70.9118C35.4511 70.9118 34.5708 70.4327 33.4778 69.8039C32.3848 69.1631 31.0703 68.3696 29.3575 68.3696C27.6536 68.3696 26.3151 69.1511 25.1892 69.7859C24.0663 70.4207 23.153 70.8969 22.3056 70.9118C21.3623 70.9238 20.2993 70.4088 19.0596 69.762C17.8169 69.1152 16.4005 68.3216 14.6518 68.3696C13.0947 68.4145 11.4687 69.1271 10.0853 69.7799C8.89348 70.3489 8.19278 70.7711 7.95322 70.9118H1.21275C0.544987 70.9028 0 71.4418 0 72.1066C0 72.7714 0.544987 73.3104 1.21275 73.3044H8.25267C8.46527 73.3044 8.68087 73.2415 8.86353 73.1337C8.86353 73.1337 9.85469 72.5408 11.1183 71.9419C12.379 71.343 13.975 70.7831 14.7206 70.7651C15.6549 70.7382 16.7119 71.2352 17.9457 71.882C19.1824 72.5288 20.5987 73.3283 22.3355 73.3044C23.9794 73.2804 25.2641 72.4929 26.369 71.8701C27.4769 71.2412 28.4112 70.7651 29.3575 70.7651C30.3067 70.7651 31.1781 71.2412 32.274 71.876C33.373 72.5109 34.6875 73.3044 36.3944 73.3044C38.1042 73.3044 39.4188 72.5109 40.5117 71.876C41.6137 71.2412 42.4881 70.7651 43.4283 70.7651C44.3746 70.7651 45.2489 71.2412 46.3509 71.876C47.4439 72.5109 48.7584 73.3044 50.4682 73.3044C52.181 73.3044 53.4956 72.5109 54.5886 71.876C55.6845 71.2412 56.5559 70.7651 57.5052 70.7651C58.4454 70.7651 59.3258 71.2412 60.4187 71.876C61.5147 72.5109 62.8293 73.3044 64.5391 73.3044C66.2519 73.3044 67.5665 72.5109 68.6594 71.876C69.7584 71.2412 70.6328 70.7651 71.582 70.7651C72.5223 70.7651 73.3966 71.2412 74.4956 71.876C75.5916 72.5109 76.9031 73.3044 78.6159 73.3044C80.3228 73.3044 81.6343 72.5109 82.7363 71.876C83.8292 71.2412 84.7036 70.7651 85.6499 70.7651C86.5991 70.7651 87.5334 71.2412 88.6413 71.8641C89.7462 72.4929 91.0249 73.2804 92.6688 73.3044C94.4296 73.3283 95.8579 72.5288 97.1186 71.882C98.3702 71.2352 99.4452 70.7322 100.406 70.7651C101.128 70.7891 102.691 71.343 103.934 71.9419C105.168 72.5408 106.132 73.1277 106.132 73.1277C106.323 73.2415 106.536 73.3044 106.758 73.3044H113.798C114.462 73.3104 115.007 72.7714 115.007 72.1066C115.007 71.4418 114.462 70.9028 113.798 70.9118H107.057C106.824 70.7711 106.144 70.3549 104.973 69.7859C103.619 69.1331 102.026 68.4205 100.478 68.3696C100.377 68.3636 100.26 68.3636 100.155 68.3636V68.3696Z" fill="url(#paint1_linear_3_3044)"/>
<defs>
<linearGradient id="paint0_linear_3_3044" x1="57.8353" y1="-18.859" x2="57.6347" y2="48.6871" gradientUnits="userSpaceOnUse">
<stop stop-color="white"/>
<stop offset="1" stop-color="#999999"/>
</linearGradient>
<linearGradient id="paint1_linear_3_3044" x1="115.007" y1="61.0852" x2="-2.87032e-06" y2="62.8228" gradientUnits="userSpaceOnUse">
<stop stop-color="#E38944"/>
<stop offset="1" stop-color="#15354F"/>
</linearGradient>
</defs>
</svg>
