<svg width="169" height="23" viewBox="0 0 169 23" fill="none" xmlns="http://www.w3.org/2000/svg">
<path d="M1.41 22.15V18.25L18.66 18.28C19.54 18.28 20.21 18.08 20.67 17.68C21.15 17.26 21.39 16.59 21.39 15.67C21.39 14.75 21.15 14.09 20.67 13.69C20.21 13.27 19.54 13.06 18.66 13.06H7.92C5.7 13.06 3.97 12.53 2.73 11.47C1.51 10.39 0.9 8.81 0.9 6.73C0.9 4.65 1.51 3.08 2.73 2.02C3.97 0.939999 5.7 0.399999 7.92 0.399999H24.78V4.3L8.43 4.27C7.57 4.27 6.9 4.47 6.42 4.87C5.94 5.25 5.7 5.87 5.7 6.73C5.7 7.59 5.94 8.22 6.42 8.62C6.9 9 7.57 9.19 8.43 9.19H19.17C21.39 9.19 23.11 9.74 24.33 10.84C25.57 11.92 26.19 13.53 26.19 15.67C26.19 17.79 25.57 19.4 24.33 20.5C23.11 21.6 21.39 22.15 19.17 22.15H1.41ZM38.6696 22.15C35.9896 22.15 33.8996 21.49 32.3996 20.17C30.8996 18.83 30.1496 16.87 30.1496 14.29C30.1496 11.69 30.8996 9.73 32.3996 8.41C33.8996 7.07 35.9896 6.4 38.6696 6.4H44.2196C46.8996 6.4 48.9896 7.07 50.4896 8.41C51.9896 9.73 52.7396 11.69 52.7396 14.29C52.7396 16.87 51.9896 18.83 50.4896 20.17C48.9896 21.49 46.8996 22.15 44.2196 22.15H38.6696ZM38.6696 18.7H44.2196C45.5196 18.7 46.5096 18.34 47.1896 17.62C47.8896 16.9 48.2396 15.79 48.2396 14.29C48.2396 12.77 47.8896 11.65 47.1896 10.93C46.5096 10.21 45.5196 9.85 44.2196 9.85H38.6696C37.3696 9.85 36.3696 10.21 35.6696 10.93C34.9896 11.65 34.6496 12.77 34.6496 14.29C34.6496 15.79 34.9896 16.9 35.6696 17.62C36.3696 18.34 37.3696 18.7 38.6696 18.7ZM57.4469 22V6.55H70.9169C72.6769 6.55 73.9569 6.99 74.7569 7.87C75.5769 8.73 75.9869 9.87 75.9869 11.29V22H71.6369V11.8C71.6369 10.6 71.0369 10 69.8369 10H61.7969V22H57.4469ZM81.1266 22V6.55H85.4766V22H81.1266ZM81.0966 4V0.609998H85.5066V4H81.0966ZM98.693 22.15C96.013 22.15 93.923 21.49 92.423 20.17C90.923 18.83 90.173 16.87 90.173 14.29C90.173 11.69 90.923 9.73 92.423 8.41C93.923 7.07 96.013 6.4 98.693 6.4H108.743V9.85H98.693C97.393 9.85 96.393 10.21 95.693 10.93C95.013 11.65 94.673 12.77 94.673 14.29C94.673 15.79 95.013 16.9 95.693 17.62C96.393 18.34 97.393 18.7 98.693 18.7H109.043V22.15H98.693ZM113.731 22V0.549999H137.251V4.45H118.531V9.19H135.511V13.09H118.531V18.1H137.251V22H113.731ZM140.738 22L148.778 11.29L140.738 0.549999H146.588L153.038 9.34H155.798L162.248 0.549999H168.098L160.058 11.29L168.098 22H162.218L155.798 13.24H153.038L146.618 22H140.738Z" fill="url(#paint0_linear_3_3390)"/>
<defs>
<linearGradient id="paint0_linear_3_3390" x1="21.2568" y1="2.85714" x2="162.657" y2="1.96875" gradientUnits="userSpaceOnUse">
<stop stop-color="#F1A14A"/>
<stop offset="0.5" stop-color="#E66216"/>
<stop offset="0.75" stop-color="#5E5D68"/>
<stop offset="1" stop-color="#2C527E"/>
</linearGradient>
</defs>
</svg>
