<svg width="307" height="50" viewBox="0 0 307 50" fill="none" xmlns="http://www.w3.org/2000/svg">
<path d="M3.06 33V12H11.28C12.42 12 13.43 12.27 14.31 12.81C15.21 13.35 15.92 14.09 16.44 15.03C16.96 15.97 17.22 17.04 17.22 18.24C17.22 19.46 16.96 20.56 16.44 21.54C15.92 22.52 15.21 23.3 14.31 23.88C13.43 24.46 12.42 24.75 11.28 24.75H5.43V33H3.06ZM5.43 22.44H11.28C11.96 22.44 12.56 22.26 13.08 21.9C13.6 21.52 14.01 21.01 14.31 20.37C14.63 19.73 14.79 19.02 14.79 18.24C14.79 17.48 14.63 16.81 14.31 16.23C14.01 15.63 13.6 15.16 13.08 14.82C12.56 14.46 11.96 14.28 11.28 14.28H5.43V22.44ZM27.6384 33.3C26.0984 33.3 24.7184 32.95 23.4984 32.25C22.2984 31.53 21.3484 30.56 20.6484 29.34C19.9484 28.1 19.5984 26.69 19.5984 25.11C19.5984 23.53 19.9484 22.13 20.6484 20.91C21.3484 19.69 22.2984 18.73 23.4984 18.03C24.7184 17.33 26.0984 16.98 27.6384 16.98C29.1784 16.98 30.5484 17.33 31.7484 18.03C32.9684 18.73 33.9184 19.69 34.5984 20.91C35.2984 22.13 35.6484 23.53 35.6484 25.11C35.6484 26.69 35.2984 28.1 34.5984 29.34C33.9184 30.56 32.9684 31.53 31.7484 32.25C30.5484 32.95 29.1784 33.3 27.6384 33.3ZM27.6384 31.2C28.7384 31.2 29.7184 30.94 30.5784 30.42C31.4584 29.88 32.1384 29.15 32.6184 28.23C33.1184 27.31 33.3584 26.27 33.3384 25.11C33.3584 23.93 33.1184 22.89 32.6184 21.99C32.1384 21.09 31.4584 20.38 30.5784 19.86C29.7184 19.34 28.7384 19.08 27.6384 19.08C26.5384 19.08 25.5484 19.34 24.6684 19.86C23.8084 20.38 23.1284 21.1 22.6284 22.02C22.1284 22.92 21.8884 23.95 21.9084 25.11C21.8884 26.27 22.1284 27.31 22.6284 28.23C23.1284 29.15 23.8084 29.88 24.6684 30.42C25.5484 30.94 26.5384 31.2 27.6384 31.2ZM42.2995 33L36.8395 17.25L39.1795 17.22L43.4995 30.09L42.8995 30.06L47.3095 19.71H48.6895L53.1295 30.09L52.4395 30.12L56.7895 17.25H59.0995L53.6995 33H52.1695L47.5795 22.08L48.2095 22.14L43.8295 33H42.2995ZM68.5676 33.3C66.9876 33.3 65.5876 32.96 64.3676 32.28C63.1476 31.58 62.1876 30.62 61.4876 29.4C60.8076 28.18 60.4676 26.79 60.4676 25.23C60.4676 24.01 60.6576 22.9 61.0376 21.9C61.4376 20.88 61.9776 20.01 62.6576 19.29C63.3576 18.55 64.1876 17.98 65.1476 17.58C66.1076 17.18 67.1576 16.98 68.2976 16.98C69.2976 16.98 70.2276 17.16 71.0876 17.52C71.9676 17.88 72.7276 18.4 73.3676 19.08C74.0076 19.74 74.4976 20.53 74.8376 21.45C75.1776 22.35 75.3276 23.35 75.2876 24.45L75.2576 25.59H62.1176L61.6376 23.73H73.3676L72.9476 24.24L72.9776 23.49C72.9376 22.63 72.6976 21.87 72.2576 21.21C71.8176 20.55 71.2476 20.03 70.5476 19.65C69.8676 19.27 69.1176 19.08 68.2976 19.08C67.1376 19.08 66.1376 19.33 65.2976 19.83C64.4576 20.31 63.8176 21 63.3776 21.9C62.9576 22.78 62.7376 23.84 62.7176 25.08C62.7376 26.32 62.9976 27.4 63.4976 28.32C63.9976 29.22 64.6976 29.93 65.5976 30.45C66.5176 30.95 67.5776 31.2 68.7776 31.2C69.6376 31.2 70.4376 31.06 71.1776 30.78C71.9176 30.48 72.6676 29.99 73.4276 29.31L74.5676 30.93C74.0876 31.41 73.5176 31.83 72.8576 32.19C72.2176 32.53 71.5276 32.8 70.7876 33C70.0476 33.2 69.3076 33.3 68.5676 33.3ZM78.5655 33V17.25H80.8455L80.8755 21.81L80.6055 21.03C80.8055 20.31 81.1455 19.64 81.6255 19.02C82.1255 18.4 82.7255 17.91 83.4255 17.55C84.1255 17.17 84.8955 16.98 85.7355 16.98C86.0755 16.98 86.3955 17.01 86.6955 17.07C86.9955 17.11 87.2455 17.17 87.4455 17.25L86.8455 19.74C86.5655 19.64 86.2755 19.56 85.9755 19.5C85.6955 19.42 85.4255 19.38 85.1655 19.38C84.5455 19.38 83.9655 19.51 83.4255 19.77C82.9055 20.01 82.4555 20.34 82.0755 20.76C81.6955 21.18 81.3955 21.66 81.1755 22.2C80.9755 22.72 80.8755 23.26 80.8755 23.82V33H78.5655ZM106.086 33.3C105.366 33.3 104.656 33.18 103.956 32.94C103.256 32.7 102.616 32.38 102.036 31.98C101.476 31.56 100.996 31.09 100.596 30.57C100.216 30.05 99.9659 29.51 99.8459 28.95L100.416 28.71V32.94H98.1359V10.8H100.416V21.42L100.026 21.27C100.146 20.69 100.386 20.15 100.746 19.65C101.126 19.13 101.586 18.67 102.126 18.27C102.686 17.87 103.296 17.56 103.956 17.34C104.616 17.1 105.296 16.98 105.996 16.98C107.436 16.98 108.706 17.33 109.806 18.03C110.926 18.73 111.806 19.69 112.446 20.91C113.106 22.13 113.436 23.53 113.436 25.11C113.436 26.67 113.106 28.07 112.446 29.31C111.806 30.55 110.926 31.53 109.806 32.25C108.706 32.95 107.466 33.3 106.086 33.3ZM105.726 31.2C106.786 31.2 107.726 30.94 108.546 30.42C109.386 29.88 110.046 29.15 110.526 28.23C111.006 27.31 111.246 26.27 111.246 25.11C111.246 23.95 111.006 22.92 110.526 22.02C110.066 21.1 109.416 20.38 108.576 19.86C107.756 19.34 106.806 19.08 105.726 19.08C104.686 19.08 103.756 19.34 102.936 19.86C102.136 20.38 101.496 21.1 101.016 22.02C100.556 22.92 100.326 23.95 100.326 25.11C100.326 26.29 100.556 27.34 101.016 28.26C101.496 29.16 102.136 29.88 102.936 30.42C103.756 30.94 104.686 31.2 105.726 31.2ZM118.823 39.9L121.883 32.61L121.973 34.41L114.293 17.25H116.963L122.363 29.67C122.483 29.91 122.593 30.19 122.693 30.51C122.813 30.81 122.913 31.1 122.993 31.38L122.363 31.56C122.503 31.2 122.633 30.85 122.753 30.51C122.893 30.15 123.023 29.8 123.143 29.46L127.763 17.25H130.433L123.923 33.12L121.283 39.9H118.823Z" fill="url(#paint0_linear_3_2960)"/>
<path d="M225.634 23.7905C224.703 23.3399 223.514 23.1116 222.103 23.1116H218.086C217.016 23.1116 216.16 22.8137 215.549 22.24L215.519 22.2102C214.921 21.5809 214.634 20.8721 214.634 20.0441C214.634 19.2162 214.931 18.4519 215.519 17.8325C216.111 17.2031 216.922 16.8854 217.923 16.8854H227.806V14.7393H217.556C216.442 14.7393 215.485 14.9974 214.63 15.5235C213.774 16.0238 213.126 16.669 212.654 17.491C212.181 18.3149 211.947 19.1865 211.947 20.1633C211.947 21.3088 212.191 22.2797 212.678 23.054C213.2 23.8422 213.893 24.4318 214.792 24.8627C215.728 25.2597 216.837 25.4622 218.086 25.4622H222.311C223.022 25.4622 223.655 25.625 224.191 25.9487C224.739 26.2405 225.146 26.6574 225.416 27.1875C225.68 27.6839 225.803 28.1881 225.803 28.7798C225.803 29.3714 225.658 29.965 225.37 30.5051C225.082 31.051 224.64 31.5057 224.062 31.863C223.52 32.1847 222.857 32.3435 222.106 32.3435H212.596V34.4857H222.559C223.752 34.4857 224.759 34.2177 225.638 33.6677C226.554 33.1119 227.241 32.419 227.743 31.5355C228.251 30.6281 228.493 29.6871 228.493 28.6547C228.493 27.4555 228.239 26.4291 227.747 25.6151C227.284 24.813 226.591 24.2115 225.636 23.7866L225.631 23.7905H225.634Z" fill="white"/>
<path d="M249.229 15.6388C247.687 14.7157 245.876 14.2451 243.851 14.2451C241.826 14.2451 240.02 14.7157 238.467 15.6428C236.918 16.5402 235.675 17.795 234.77 19.3713C233.865 20.914 233.406 22.679 233.406 24.6127C233.406 26.5465 233.865 28.3313 234.77 29.8978C235.675 31.4444 236.92 32.6991 238.467 33.6263C239.944 34.4899 241.671 34.9446 243.593 34.9803H243.851C245.876 34.9843 247.683 34.5336 249.229 33.6323C250.808 32.7051 252.051 31.4503 252.932 29.9097C253.837 28.3373 254.296 26.5584 254.296 24.6207C254.296 22.6829 253.837 20.8723 252.932 19.3296C252.051 17.787 250.808 16.5481 249.229 15.6468V15.6408V15.6388ZM251.564 24.6187C251.564 26.1454 251.241 27.5491 250.6 28.7939C249.958 30.0189 249.053 31.0056 247.913 31.7342C246.778 32.4589 245.37 32.8401 243.847 32.8401C242.324 32.8401 240.96 32.4688 239.781 31.7342C238.642 31.0056 237.736 30.0149 237.089 28.79C236.452 27.5511 236.124 26.1474 236.124 24.6207C236.124 23.0939 236.448 21.7061 237.089 20.4911C237.73 19.2363 238.642 18.2298 239.787 17.5011C240.96 16.7665 242.331 16.4013 243.847 16.4013C245.364 16.4013 246.758 16.7725 247.913 17.5071C249.059 18.2417 249.964 19.2423 250.605 20.4871C251.243 21.7061 251.57 23.0939 251.57 24.6226H251.564V24.6187Z" fill="white"/>
<path d="M274.22 15.3677C272.856 14.6292 271.249 14.252 269.437 14.252C267.624 14.252 266.038 14.6292 264.644 15.3776C263.246 16.0963 262.176 17.089 261.374 18.3974C260.608 19.6958 260.219 21.2384 260.219 22.9836V34.4947H262.907V23.0233C262.907 21.6752 263.211 20.49 263.809 19.5072C264.426 18.5066 265.242 17.7283 266.232 17.1863C267.237 16.6562 268.313 16.3882 269.437 16.3882C270.561 16.3882 271.627 16.6562 272.602 17.1863C273.612 17.7223 274.428 18.5006 275.03 19.5112C275.651 20.4919 275.965 21.6673 275.965 23.0153V34.4868H278.657V22.9757C278.657 21.2365 278.254 19.6879 277.462 18.3894C276.686 17.0751 275.625 16.0884 274.222 15.3598L274.218 15.3657L274.22 15.3677Z" fill="white"/>
<path d="M288.453 14.7363H285.725V34.4888H288.453V14.7363Z" fill="white"/>
<path d="M300.913 17.9387C302.112 17.2399 303.47 16.8825 304.959 16.8825H307V14.7363H305.084C303.03 14.7363 301.167 15.183 299.565 16.0605C297.963 16.9341 296.678 18.1372 295.743 19.6303C294.818 21.0875 294.35 22.7632 294.35 24.6135C294.35 26.4639 294.818 28.1475 295.743 29.6365C296.675 31.1037 297.963 32.2889 299.565 33.1665C300.969 33.9289 303.717 34.4907 304.946 34.4907H307V32.3445H304.959C303.476 32.3445 302.112 32.0031 300.909 31.328C299.744 30.6292 298.795 29.6822 298.092 28.5167C297.421 27.3474 297.078 26.0331 297.078 24.6095C297.078 23.186 297.421 21.8678 298.098 20.6984C298.795 19.5389 299.746 18.6058 300.915 17.9367V17.9427L300.913 17.9387Z" fill="white"/>
<path d="M180.613 30.5899C171.318 33.3813 163.629 37.4533 158.814 42.2244L158.602 42.4367C159.882 43.6476 161.285 44.7317 162.803 45.6528L163.128 45.254C164.442 43.6476 165.852 42.0972 167.319 40.6359C171.258 36.7108 175.765 33.3138 180.617 30.5859L180.611 30.5899H180.613Z" fill="white"/>
<path d="M151 26.4521C151.371 31.4295 153.22 35.9938 156.12 39.7065L156.253 39.5735C159.233 36.6331 163.113 33.9608 167.792 31.632C171.894 29.589 176.603 27.836 181.68 26.4521H151Z" fill="white"/>
<path d="M169.918 5.9958C178.235 14.2827 188.702 19.7623 200.183 21.841C198.799 9.55559 188.343 0 175.636 0C172.281 0 169.083 0.669067 166.162 1.87617C167.347 3.30365 168.614 4.6934 169.918 5.99778V5.9958Z" fill="white"/>
<path d="M158.814 7.01074C163.629 11.7875 171.318 15.8536 180.613 18.6509C175.761 15.9191 171.254 12.5261 167.315 8.601C165.852 7.14376 164.444 5.59318 163.124 3.98304L162.798 3.58398C161.282 4.50521 159.878 5.58721 158.604 6.79828L158.816 7.01074H158.814Z" fill="white"/>
<path d="M170.719 43.2378C169.409 44.5421 168.144 45.932 166.963 47.3594C169.879 48.5665 173.082 49.2357 176.437 49.2357C189.143 49.2357 199.6 39.6781 200.988 27.3887C189.509 29.4674 179.042 34.947 170.723 43.2341L170.719 43.2378Z" fill="white"/>
<path d="M167.794 17.5999C163.115 15.2711 159.235 12.5968 156.255 9.65841L156.122 9.52539C153.222 13.238 151.373 17.8024 151.002 22.7797H181.676C176.601 21.3959 171.896 19.6428 167.788 17.5939L167.792 17.5999H167.794Z" fill="white"/>
<path d="M212.42 45.6595V40.1006H213.087V44.9924H215.577V45.6595H212.42Z" fill="white"/>
<path d="M224.512 40.1006H225.317L227.339 45.6595H226.632L226.219 44.524H223.61L223.201 45.6595H222.49L224.512 40.1006ZM223.858 43.8568H225.975L224.914 40.9543L223.858 43.8568Z" fill="white"/>
<path d="M234.416 45.6595V40.1006H236.334C236.61 40.1006 236.86 40.1562 237.086 40.2694C237.313 40.3825 237.491 40.5453 237.624 40.7597C237.757 40.9742 237.823 41.2301 237.823 41.5302C237.823 41.6907 237.795 41.8479 237.742 41.9965C237.688 42.1455 237.612 42.2747 237.519 42.3817C237.426 42.4891 237.318 42.5603 237.2 42.5982C237.366 42.6398 237.507 42.7155 237.624 42.8225C237.742 42.9299 237.835 43.0547 237.908 43.1979C237.982 43.3407 238.033 43.4897 238.065 43.6465C238.097 43.8033 238.113 43.9544 238.113 44.0992C238.113 44.4067 238.043 44.6767 237.904 44.9113C237.765 45.1455 237.579 45.3282 237.346 45.4612C237.114 45.5941 236.856 45.6595 236.576 45.6595H234.416ZM235.083 42.348H236.27C236.515 42.348 236.723 42.2768 236.896 42.1315C237.068 41.9866 237.156 41.7862 237.156 41.526C237.156 41.2462 237.068 41.0357 236.896 40.8967C236.723 40.7578 236.515 40.6883 236.27 40.6883H235.083V42.348ZM235.083 45.0718H236.516C236.699 45.0718 236.866 45.0245 237.015 44.931C237.164 44.8376 237.285 44.7088 237.374 44.5437C237.463 44.3791 237.509 44.1943 237.509 43.9881C237.509 43.8054 237.463 43.6325 237.374 43.4699C237.285 43.3069 237.164 43.1761 237.015 43.0748C236.866 42.9736 236.699 42.9238 236.516 42.9238H235.083V45.0718Z" fill="white"/>
<path d="M247.215 45.7631C246.915 45.7631 246.627 45.7158 246.349 45.6224C246.071 45.529 245.829 45.394 245.621 45.2194C245.412 45.0445 245.265 44.8363 245.178 44.5959L245.801 44.3617C245.855 44.5107 245.952 44.6395 246.097 44.7486C246.242 44.8581 246.411 44.9433 246.607 45.005C246.804 45.0663 247.006 45.0964 247.215 45.0964C247.453 45.0964 247.676 45.0565 247.88 44.9791C248.084 44.9017 248.251 44.7926 248.378 44.6515C248.505 44.5107 248.569 44.3477 248.569 44.1592C248.569 43.9707 248.503 43.8077 248.37 43.6847C248.237 43.5616 248.069 43.4641 247.862 43.3908C247.655 43.3171 247.439 43.2616 247.215 43.2221C246.831 43.1587 246.488 43.0673 246.184 42.95C245.881 42.8327 245.642 42.6681 245.466 42.4557C245.289 42.2433 245.202 41.9655 245.202 41.6177C245.202 41.2942 245.295 41.0123 245.481 40.7721C245.668 40.5318 245.914 40.3452 246.222 40.2122C246.53 40.0792 246.859 40.0137 247.215 40.0137C247.508 40.0137 247.795 40.0594 248.07 40.1507C248.346 40.242 248.591 40.375 248.803 40.5497C249.016 40.7244 249.166 40.9369 249.26 41.1889L248.628 41.4193C248.575 41.2683 248.477 41.1374 248.332 41.0282C248.188 40.919 248.019 40.8336 247.824 40.7741C247.63 40.7145 247.427 40.6847 247.215 40.6847C246.978 40.6827 246.76 40.7205 246.556 40.7999C246.351 40.8793 246.187 40.9885 246.059 41.1295C245.932 41.2703 245.869 41.4333 245.869 41.6177C245.869 41.8404 245.928 42.0108 246.045 42.1281C246.163 42.2454 246.324 42.3347 246.528 42.3923C246.732 42.4499 246.961 42.5014 247.215 42.5471C247.574 42.6084 247.908 42.7039 248.216 42.8348C248.523 42.966 248.769 43.1406 248.956 43.3571C249.142 43.5735 249.236 43.8415 249.236 44.1592C249.236 44.477 249.142 44.7647 248.956 45.005C248.769 45.245 248.523 45.4318 248.216 45.5648C247.908 45.6977 247.574 45.7631 247.215 45.7631Z" fill="white"/>
<defs>
<linearGradient id="paint0_linear_3_2960" x1="11.4592" y1="12.1212" x2="185.988" y2="9.50545" gradientUnits="userSpaceOnUse">
<stop stop-color="#F1A14A"/>
<stop offset="0.5" stop-color="#E66216"/>
<stop offset="0.75" stop-color="#5E5D68"/>
<stop offset="1" stop-color="#2C527E"/>
</linearGradient>
</defs>
</svg>
