<svg width="1194" height="211" viewBox="0 0 1194 211" fill="none" xmlns="http://www.w3.org/2000/svg">
<rect x="125" y="1" width="1069" height="209" fill="url(#paint0_linear_3_3221)" fill-opacity="0.5"/>
<mask id="mask0_3_3221" style="mask-type:luminance" maskUnits="userSpaceOnUse" x="4" y="41" width="243" height="170">
<path d="M4 41H246.667V210.333H4V41Z" fill="white"/>
</mask>
<g mask="url(#mask0_3_3221)">
<mask id="mask1_3_3221" style="mask-type:luminance" maskUnits="userSpaceOnUse" x="5" y="42" width="242" height="169">
<path fill-rule="evenodd" clip-rule="evenodd" d="M6.42187 128.453C4.78125 127.323 4.78125 124.901 6.42187 123.766L123.995 42.6982C124.969 42.0264 126.255 42.0264 127.229 42.6982L244.802 123.766C246.443 124.901 246.443 127.323 244.802 128.453L127.229 209.526C126.255 210.198 124.969 210.198 123.995 209.526L6.42187 128.453Z" fill="white"/>
</mask>
<g mask="url(#mask1_3_3221)">
<path fill-rule="evenodd" clip-rule="evenodd" d="M4.78125 42.0264H246.443V210.198H4.78125V42.0264Z" fill="#506179" fill-opacity="0.58"/>
</g>
</g>
<path fill-rule="evenodd" clip-rule="evenodd" d="M1.68359 113.829C0.891927 113.303 0.417969 112.412 0.417969 111.464V87.5579C0.417969 85.985 1.69401 84.709 3.26693 84.709H250.423C251.996 84.709 253.272 85.985 253.272 87.5579V111.464C253.272 112.412 252.798 113.303 252.007 113.829L128.428 196.454C127.47 197.094 126.22 197.094 125.262 196.454L1.68359 113.829Z" fill="#141416"/>
<mask id="mask2_3_3221" style="mask-type:luminance" maskUnits="userSpaceOnUse" x="0" y="0" width="254" height="170">
<path d="M0 0H253.333V169.333H0V0Z" fill="white"/>
</mask>
<g mask="url(#mask2_3_3221)">
<mask id="mask3_3_3221" style="mask-type:luminance" maskUnits="userSpaceOnUse" x="0" y="0" width="254" height="169">
<path fill-rule="evenodd" clip-rule="evenodd" d="M1.66211 87.0466C-0.0514322 85.9216 -0.0514322 83.4111 1.66211 82.2861L125.282 1.16113C126.23 0.541341 127.459 0.541341 128.407 1.16113L252.027 82.2861C253.74 83.4111 253.74 85.9216 252.027 87.0466L128.407 168.172C127.459 168.791 126.23 168.791 125.282 168.172L1.66211 87.0466Z" fill="white"/>
</mask>
<g mask="url(#mask3_3_3221)">
<path d="M0 1V169.25H253.792V1H0Z" fill="url(#paint1_linear_3_3221)"/>
</g>
</g>
<path d="M80.0697 96.3C77.9897 96.3 76.2297 95.94 74.7897 95.22C73.3697 94.48 72.1497 93.44 71.1297 92.1L74.2497 88.59C75.2297 89.93 76.2197 90.83 77.2197 91.29C78.2197 91.75 79.2497 91.98 80.3097 91.98C80.8497 91.98 81.3297 91.91 81.7497 91.77C82.1897 91.63 82.5297 91.43 82.7697 91.17C83.0297 90.89 83.1597 90.56 83.1597 90.18C83.1597 89.88 83.0797 89.61 82.9197 89.37C82.7797 89.13 82.5797 88.92 82.3197 88.74C82.0597 88.56 81.7597 88.4 81.4197 88.26C81.0797 88.1 80.6997 87.97 80.2797 87.87C79.8797 87.77 79.4697 87.68 79.0497 87.6C77.8897 87.36 76.8797 87.05 76.0197 86.67C75.1797 86.27 74.4697 85.8 73.8897 85.26C73.3297 84.7 72.9097 84.07 72.6297 83.37C72.3497 82.65 72.2097 81.84 72.2097 80.94C72.2097 79.66 72.5697 78.54 73.2897 77.58C74.0297 76.62 74.9997 75.87 76.1997 75.33C77.3997 74.79 78.6997 74.52 80.0997 74.52C82.1397 74.52 83.7797 74.85 85.0197 75.51C86.2797 76.15 87.2797 77.04 88.0197 78.18L84.8397 81.27C84.2197 80.47 83.5097 79.87 82.7097 79.47C81.9297 79.07 81.1097 78.87 80.2497 78.87C79.6697 78.87 79.1597 78.94 78.7197 79.08C78.2797 79.22 77.9397 79.43 77.6997 79.71C77.4797 79.97 77.3697 80.29 77.3697 80.67C77.3697 80.99 77.4597 81.28 77.6397 81.54C77.8397 81.78 78.1097 81.99 78.4497 82.17C78.7897 82.35 79.1797 82.51 79.6197 82.65C80.0597 82.77 80.5197 82.87 80.9997 82.95C82.0997 83.17 83.0897 83.46 83.9697 83.82C84.8697 84.18 85.6397 84.63 86.2797 85.17C86.9197 85.69 87.4097 86.31 87.7497 87.03C88.1097 87.73 88.2897 88.54 88.2897 89.46C88.2897 90.9 87.9397 92.13 87.2397 93.15C86.5397 94.17 85.5697 94.95 84.3297 95.49C83.0897 96.03 81.6697 96.3 80.0697 96.3ZM92.9627 96V76.05H97.7927V96H92.9627ZM90.1427 84.3V80.07H100.853V84.3H90.1427ZM111.969 96V86.22C111.969 85.4 111.739 84.8 111.279 84.42C110.839 84.02 110.219 83.82 109.419 83.82C108.639 83.82 107.939 83.97 107.319 84.27C106.719 84.55 106.139 85.02 105.579 85.68L102.699 82.89C103.659 81.91 104.759 81.14 105.999 80.58C107.239 80.02 108.589 79.74 110.049 79.74C111.389 79.74 112.549 79.94 113.529 80.34C114.509 80.74 115.269 81.35 115.809 82.17C116.349 82.99 116.619 84.03 116.619 85.29V96H111.969ZM107.829 96.3C106.829 96.3 105.919 96.1 105.099 95.7C104.299 95.3 103.659 94.75 103.179 94.05C102.719 93.33 102.489 92.49 102.489 91.53C102.489 90.71 102.639 89.99 102.939 89.37C103.239 88.75 103.679 88.24 104.259 87.84C104.859 87.42 105.599 87.11 106.479 86.91C107.379 86.69 108.419 86.58 109.599 86.58H114.429L114.159 89.61H109.719C109.299 89.61 108.929 89.65 108.609 89.73C108.289 89.79 108.019 89.9 107.799 90.06C107.579 90.2 107.409 90.37 107.289 90.57C107.189 90.77 107.139 91.01 107.139 91.29C107.139 91.59 107.219 91.85 107.379 92.07C107.539 92.29 107.749 92.46 108.009 92.58C108.289 92.7 108.609 92.76 108.969 92.76C109.489 92.76 109.979 92.68 110.439 92.52C110.919 92.34 111.339 92.09 111.699 91.77C112.079 91.45 112.379 91.08 112.599 90.66L113.439 92.82C113.019 93.5 112.509 94.1 111.909 94.62C111.329 95.14 110.689 95.55 109.989 95.85C109.309 96.15 108.589 96.3 107.829 96.3ZM127.761 102.9C126.481 102.9 125.191 102.71 123.891 102.33C122.611 101.97 121.571 101.49 120.771 100.89L122.451 97.47C123.091 97.91 123.811 98.25 124.611 98.49C125.431 98.75 126.281 98.88 127.161 98.88C128.181 98.88 129.011 98.73 129.651 98.43C130.291 98.13 130.761 97.68 131.061 97.08C131.381 96.48 131.541 95.73 131.541 94.83V92.19L132.441 92.37C132.321 92.99 131.981 93.57 131.421 94.11C130.881 94.65 130.211 95.08 129.411 95.4C128.611 95.72 127.771 95.88 126.891 95.88C125.451 95.88 124.161 95.55 123.021 94.89C121.881 94.21 120.981 93.28 120.321 92.1C119.681 90.9 119.361 89.52 119.361 87.96C119.361 86.36 119.681 84.94 120.321 83.7C120.981 82.46 121.871 81.49 122.991 80.79C124.111 80.09 125.371 79.74 126.771 79.74C127.351 79.74 127.911 79.81 128.451 79.95C129.011 80.07 129.521 80.25 129.981 80.49C130.461 80.73 130.881 81 131.241 81.3C131.621 81.6 131.931 81.93 132.171 82.29C132.411 82.65 132.561 83.01 132.621 83.37L131.631 83.67L131.811 80.07H136.401V94.68C136.401 95.98 136.201 97.14 135.801 98.16C135.421 99.18 134.851 100.04 134.091 100.74C133.351 101.44 132.451 101.97 131.391 102.33C130.331 102.71 129.121 102.9 127.761 102.9ZM127.881 92.13C128.661 92.13 129.331 91.96 129.891 91.62C130.471 91.28 130.911 90.8 131.211 90.18C131.531 89.56 131.691 88.84 131.691 88.02C131.691 87.16 131.531 86.42 131.211 85.8C130.911 85.18 130.471 84.7 129.891 84.36C129.331 84 128.661 83.82 127.881 83.82C127.141 83.82 126.491 84 125.931 84.36C125.371 84.7 124.931 85.18 124.611 85.8C124.311 86.42 124.161 87.15 124.161 87.99C124.161 88.83 124.311 89.56 124.611 90.18C124.931 90.8 125.371 91.28 125.931 91.62C126.491 91.96 127.141 92.13 127.881 92.13ZM148.158 96.3C146.398 96.3 144.858 95.95 143.538 95.25C142.238 94.55 141.228 93.59 140.508 92.37C139.808 91.13 139.458 89.72 139.458 88.14C139.458 86.9 139.658 85.77 140.058 84.75C140.458 83.71 141.018 82.82 141.738 82.08C142.478 81.34 143.338 80.77 144.318 80.37C145.318 79.95 146.408 79.74 147.588 79.74C148.708 79.74 149.728 79.94 150.648 80.34C151.568 80.74 152.368 81.3 153.048 82.02C153.728 82.74 154.248 83.59 154.608 84.57C154.968 85.55 155.138 86.62 155.118 87.78L155.088 89.1H142.428L141.708 86.37H151.158L150.648 86.91V86.31C150.608 85.81 150.448 85.38 150.168 85.02C149.908 84.64 149.558 84.34 149.118 84.12C148.698 83.9 148.218 83.79 147.678 83.79C146.878 83.79 146.198 83.95 145.638 84.27C145.098 84.57 144.688 85.01 144.408 85.59C144.128 86.17 143.988 86.89 143.988 87.75C143.988 88.61 144.168 89.37 144.528 90.03C144.908 90.69 145.448 91.2 146.148 91.56C146.868 91.92 147.718 92.1 148.698 92.1C149.358 92.1 149.958 92 150.498 91.8C151.038 91.6 151.618 91.26 152.238 90.78L154.488 93.96C153.868 94.48 153.208 94.92 152.508 95.28C151.808 95.62 151.088 95.87 150.348 96.03C149.628 96.21 148.898 96.3 148.158 96.3ZM171.986 94.5V77.55L173.126 80.07L168.656 82.17L167.756 77.64L173.756 74.7H177.026V94.5H171.986ZM168.176 96V91.47H180.956V96H168.176Z" fill="white"/>
<defs>
<linearGradient id="paint0_linear_3_3221" x1="1194" y1="105.5" x2="125" y2="105.5" gradientUnits="userSpaceOnUse">
<stop stop-color="#141416"/>
<stop offset="1" stop-color="#FE9A4C"/>
</linearGradient>
<linearGradient id="paint1_linear_3_3221" x1="395.591" y1="85.0115" x2="255.508" y2="-150.791" gradientUnits="userSpaceOnUse">
<stop stop-color="#214E81"/>
<stop offset="1" stop-color="#FE9A4C"/>
</linearGradient>
</defs>
</svg>
