<svg width="134" height="90" viewBox="0 0 134 90" fill="none" xmlns="http://www.w3.org/2000/svg">
<mask id="mask0_3_3460" style="mask-type:luminance" maskUnits="userSpaceOnUse" x="0" y="46" width="67" height="45">
<path d="M0 46.3779H66.3417V90.0009H0V46.3779Z" fill="white"/>
</mask>
<g mask="url(#mask0_3_3460)">
<path d="M33.0655 84.8285C25.4363 84.8285 19.2272 78.6145 19.2272 70.974C19.2272 63.3383 25.4363 57.1194 33.0655 57.1194C40.6946 57.1194 46.8989 63.3383 46.8989 70.974C46.8989 78.6145 40.6946 84.8285 33.0655 84.8285ZM65.9888 74.7585C65.5425 68.9032 63.1845 63.7262 59.8803 58.8868C58.4911 56.8565 56.8699 55.0276 55.1448 53.2781C54.4372 52.5592 53.7393 51.8435 52.8857 51.2917C52.8922 51.2982 52.8954 51.3063 52.8987 51.3128C51.1249 49.8181 49.2099 48.4955 47.1245 47.3741C46.5776 47.0771 46.0307 46.7833 45.4821 46.4945C43.8641 48.4565 41.6992 49.9934 39.1756 50.9639C37.2428 51.7039 35.1866 52.0837 33.0655 52.0837C30.7302 52.0837 28.4874 51.6309 26.3955 50.7367C24.1218 49.7662 22.1419 48.3023 20.6488 46.4912C20.0987 46.7833 19.5469 47.0771 19 47.3741C16.9179 48.4955 15.0012 49.8181 13.2258 51.3128C13.2323 51.3063 13.2372 51.2982 13.2404 51.2917C12.3884 51.8435 11.6922 52.5592 10.9797 53.2781C9.25462 55.0276 7.63336 56.8565 6.2458 58.8868C2.94 63.7262 0.586821 68.9032 0.140529 74.7585C0.132415 74.8494 0.0593853 76.1461 0.0626313 76.6768C0.0415335 83.1245 2.56349 86.4497 7.74047 88.7964C10.9148 90.231 55.2113 90.231 58.384 88.7964C63.561 86.4497 66.083 83.1245 66.0651 76.6768C66.0684 76.1461 66.0505 75.6186 66.0132 75.0912C66.0099 75.0701 65.9953 74.8494 65.9888 74.7585Z" fill="url(#paint0_linear_3_3460)"/>
</g>
<path d="M20.639 37.1433C21.3823 39.7172 22.1661 42.4436 22.752 44.4787C23.9578 46.001 25.6083 47.2409 27.533 48.062C29.2029 48.7745 31.079 49.1753 33.0621 49.1753C34.8684 49.1753 36.5838 48.8443 38.1353 48.2503C40.4446 47.3626 42.3823 45.8858 43.7001 44.047L45.5064 37.2829C46.2529 34.5873 47.0124 31.8819 47.707 29.1295C47.7346 29.0143 47.6226 28.9105 47.509 28.9445C46.8696 29.1442 46.4476 29.4363 46.0711 29.7819C45.3603 30.4327 44.6836 31.1273 43.976 31.783C43.7488 31.9891 43.5476 32.14 43.3593 32.2276C42.8319 32.4743 42.418 32.2439 41.9506 31.5217C41.6504 31.064 41.4135 30.5642 41.1278 30.1C41.11 30.0724 41.0921 30.0449 41.0743 30.0173C40.4024 28.9591 39.7046 28.5599 38.8088 28.7563C38.4566 28.8326 38.0768 29.0013 37.6549 29.2513C36.5043 29.9475 35.6458 30.9602 34.698 31.8771C34.1365 32.4224 33.3137 32.3347 32.8706 31.6888C32.5818 31.2669 32.3448 30.8027 32.09 30.3548C30.9881 28.4106 29.4188 28.1834 27.7618 29.7381C27.0331 30.4214 26.3191 31.1208 25.5758 31.783C25.2171 32.1075 24.7319 32.45 24.2191 32.4078C23.7728 32.3737 23.4872 32.0248 23.195 31.7213C23.1496 31.6758 23.1074 31.6336 23.062 31.5915C21.8237 30.4457 20.3745 29.769 18.8993 29.0565C18.6445 28.9316 18.3589 29.162 18.4286 29.4411C18.4984 29.7057 19.516 33.25 20.639 37.1433Z" fill="url(#paint1_linear_3_3460)"/>
<path d="M74.2247 32.0487C88.8452 37.5194 103.597 37.8553 118.409 32.8439C122.715 31.3881 126.7 29.2865 129.894 25.9596C134.606 21.0488 134.536 15.1172 129.779 10.2388C127.75 8.15501 125.373 6.56296 122.771 5.29874C114.152 1.09873 104.936 -0.0502661 95.4941 0.00166604C89.7232 0.159085 84.0399 0.905609 78.5172 2.60639C73.3175 4.20492 68.3564 6.32116 64.5231 10.3719C59.82 15.3379 59.8995 21.039 64.6497 25.9482C67.355 28.7445 70.6333 30.7033 74.2247 32.0487Z" fill="url(#paint2_linear_3_3460)"/>
<path d="M74.2247 32.0487C88.8452 37.5194 103.597 37.8553 118.409 32.8439C122.715 31.3881 126.7 29.2865 129.894 25.9596C134.606 21.0488 134.536 15.1172 129.779 10.2388C127.75 8.15501 125.373 6.56296 122.771 5.29874C114.152 1.09873 104.936 -0.0502661 95.4941 0.00166604C89.7232 0.159085 84.0399 0.905609 78.5172 2.60639C73.3175 4.20492 68.3564 6.32116 64.5231 10.3719C59.82 15.3379 59.8995 21.039 64.6497 25.9482C67.355 28.7445 70.6333 30.7033 74.2247 32.0487Z" stroke="black"/>
<path d="M65.758 40.5364C69.0979 43.456 73.0382 45.3206 77.1976 46.6855C88.4815 50.3938 99.9747 50.5885 111.53 48.3051C117.555 47.1188 123.221 44.923 128.112 41.0606C130.327 39.3144 132.122 37.2225 132.991 34.4685C133.615 32.4983 133.727 30.5443 132.793 28.4865C131.822 29.4538 130.86 30.2181 129.845 30.9241C122.596 35.9696 114.465 38.5532 105.777 39.527C98.3908 40.3546 91.0375 40.0025 83.7395 38.6198C77.0662 37.3588 70.6607 35.4032 65.1624 31.2032C64.3674 30.5949 63.6145 29.9301 62.8204 29.229C62.4472 28.8996 62.065 28.5622 61.6651 28.2188C61.162 29.8562 60.8763 31.2844 61.11 32.8099C61.605 36.0362 63.3902 38.4656 65.758 40.5364Z" fill="url(#paint3_linear_3_3460)"/>
<path d="M65.758 40.5364C69.0979 43.456 73.0382 45.3206 77.1976 46.6855C88.4815 50.3938 99.9747 50.5885 111.53 48.3051C117.555 47.1188 123.221 44.923 128.112 41.0606C130.327 39.3144 132.122 37.2225 132.991 34.4685C133.615 32.4983 133.727 30.5443 132.793 28.4865C131.822 29.4538 130.86 30.2181 129.845 30.9241C122.596 35.9696 114.465 38.5532 105.777 39.527C98.3908 40.3546 91.0375 40.0025 83.7395 38.6198C77.0662 37.3588 70.6607 35.4032 65.1624 31.2032C64.3674 30.5949 63.6145 29.9301 62.8204 29.229C62.4472 28.8996 62.065 28.5622 61.6651 28.2188C61.162 29.8562 60.8763 31.2844 61.11 32.8099C61.605 36.0362 63.3902 38.4656 65.758 40.5364Z" stroke="black"/>
<path d="M117.183 63.9384C107.984 66.7071 98.5667 67.1436 89.0745 66.2803C79.6602 65.4217 70.9778 62.6109 63.3535 56.7978C66.3786 61.2672 68.3633 65.6311 69.3598 70.0307C71.4598 71.3014 73.7334 72.2865 76.0834 73.1077C87.0557 76.9231 98.2973 77.3596 109.654 75.3911C115.795 74.3265 121.664 72.4018 126.828 68.7535C129.718 66.7071 132.138 64.2517 133.019 60.6732C133.47 58.8572 133.519 57.0217 132.675 55.0938C128.191 59.5145 122.949 62.202 117.183 63.9384Z" fill="url(#paint4_linear_3_3460)"/>
<path d="M117.183 63.9384C107.984 66.7071 98.5667 67.1436 89.0745 66.2803C79.6602 65.4217 70.9778 62.6109 63.3535 56.7978C66.3786 61.2672 68.3633 65.6311 69.3598 70.0307C71.4598 71.3014 73.7334 72.2865 76.0834 73.1077C87.0557 76.9231 98.2973 77.3596 109.654 75.3911C115.795 74.3265 121.664 72.4018 126.828 68.7535C129.718 66.7071 132.138 64.2517 133.019 60.6732C133.47 58.8572 133.519 57.0217 132.675 55.0938C128.191 59.5145 122.949 62.202 117.183 63.9384Z" stroke="black"/>
<path d="M76.0822 59.7721C87.0545 63.5891 98.2929 64.0256 109.65 62.0555C115.789 60.9909 121.662 59.071 126.826 55.4179C129.717 53.3747 132.133 50.9177 133.018 47.3376C133.464 45.5232 133.518 43.6861 132.674 41.7549C128.19 46.1789 122.948 48.868 117.182 50.6028C107.98 53.3714 98.5656 53.808 89.0766 52.943C78.8995 52.0131 69.5761 48.8079 61.5218 41.9918C60.1472 46.3785 61.6532 49.8693 64.5728 52.9073C67.7731 56.2391 71.7897 58.2774 76.0822 59.7721Z" fill="url(#paint5_linear_3_3460)"/>
<path d="M76.0822 59.7721C87.0545 63.5891 98.2929 64.0256 109.65 62.0555C115.789 60.9909 121.662 59.071 126.826 55.4179C129.717 53.3747 132.133 50.9177 133.018 47.3376C133.464 45.5232 133.518 43.6861 132.674 41.7549C128.19 46.1789 122.948 48.868 117.182 50.6028C107.98 53.3714 98.5656 53.808 89.0766 52.943C78.8995 52.0131 69.5761 48.8079 61.5218 41.9918C60.1472 46.3785 61.6532 49.8693 64.5728 52.9073C67.7731 56.2391 71.7897 58.2774 76.0822 59.7721Z" stroke="black"/>
<path d="M117.182 77.2688C107.984 80.0423 98.566 80.4789 89.0738 79.6123C82.2999 78.9972 75.9041 77.3678 70.0115 74.3363C70.0135 74.3605 70.0161 74.3861 70.0186 74.4101C70.0201 74.4246 70.0216 74.4387 70.0228 74.4515L70.0504 74.8086C70.0893 75.4334 70.1137 76.0679 70.1088 76.6895C70.1169 79.127 69.7956 81.3017 69.1367 83.2297C71.2951 84.5702 73.6451 85.5942 76.0826 86.4381C87.0549 90.2584 98.2966 90.6949 109.654 88.7264C115.794 87.6569 121.663 85.737 126.827 82.0872C129.717 80.0423 132.137 77.5837 133.018 74.0085C133.469 72.1892 133.518 70.3554 132.674 68.4258C128.19 72.8497 122.948 75.5372 117.182 77.2688Z" fill="url(#paint6_linear_3_3460)"/>
<path d="M117.182 77.2688C107.984 80.0423 98.566 80.4789 89.0738 79.6123C82.2999 78.9972 75.9041 77.3678 70.0115 74.3363C70.0135 74.3605 70.0161 74.3861 70.0186 74.4101C70.0201 74.4246 70.0216 74.4387 70.0228 74.4515L70.0504 74.8086C70.0893 75.4334 70.1137 76.0679 70.1088 76.6895C70.1169 79.127 69.7956 81.3017 69.1367 83.2297C71.2951 84.5702 73.6451 85.5942 76.0826 86.4381C87.0549 90.2584 98.2966 90.6949 109.654 88.7264C115.794 87.6569 121.663 85.737 126.827 82.0872C129.717 80.0423 132.137 77.5837 133.018 74.0085C133.469 72.1892 133.518 70.3554 132.674 68.4258C128.19 72.8497 122.948 75.5372 117.182 77.2688Z" stroke="black"/>
<path d="M33.9257 76.3353H34.1374C34.2462 76.3407 34.3539 76.3349 34.4617 76.3189C34.569 76.303 34.6744 76.2764 34.7769 76.2401C34.8789 76.2034 34.977 76.157 35.0703 76.1014C35.1636 76.0453 35.2506 75.981 35.3313 75.908C35.412 75.8355 35.485 75.7553 35.5503 75.6683C35.6151 75.5813 35.6711 75.4885 35.718 75.3908C35.7649 75.2927 35.8021 75.1907 35.8292 75.0853C35.8558 74.9805 35.8722 74.8731 35.8785 74.7649V73.2742C35.8785 72.9121 35.5068 72.4795 34.8571 72.0889L33.916 71.7598L33.9257 76.3353Z" fill="#F0AE1C"/>
<mask id="mask1_3_3460" style="mask-type:luminance" maskUnits="userSpaceOnUse" x="20" y="57" width="27" height="27">
<path d="M20.252 57.9561H46.1079V83.8182H20.252V57.9561Z" fill="white"/>
</mask>
<g mask="url(#mask1_3_3460)">
<path d="M33.1953 58.0703C32.9846 58.0703 32.7738 58.0756 32.5636 58.0858C32.3528 58.0964 32.143 58.1119 31.9333 58.1322C31.7235 58.153 31.5147 58.1786 31.3058 58.2095C31.0975 58.2405 30.8901 58.2767 30.6833 58.3178C30.4769 58.3589 30.271 58.4048 30.067 58.456C29.8625 58.5073 29.6595 58.5633 29.4574 58.6247C29.2559 58.6856 29.0558 58.7519 28.8576 58.8224C28.6594 58.8935 28.4627 58.9694 28.2679 59.0501C28.0731 59.1303 27.8807 59.2159 27.6902 59.3058C27.4998 59.3962 27.3118 59.4905 27.1257 59.59C26.9401 59.6891 26.7564 59.793 26.5761 59.9013C26.3953 60.0096 26.2169 60.1222 26.042 60.2392C25.867 60.3562 25.6944 60.4775 25.5252 60.6027C25.3561 60.7284 25.1898 60.8579 25.0269 60.9913C24.864 61.1247 24.7045 61.2625 24.5483 61.4041C24.3922 61.5453 24.24 61.6903 24.0911 61.8396C23.9417 61.9885 23.7967 62.1408 23.6551 62.2969C23.5134 62.453 23.3762 62.6121 23.2423 62.7749C23.1089 62.9378 22.9793 63.1036 22.8537 63.2728C22.728 63.442 22.6066 63.6141 22.4897 63.7895C22.3727 63.9645 22.2601 64.1424 22.1518 64.3227C22.0435 64.5035 21.9396 64.6867 21.84 64.8723C21.7409 65.0584 21.6462 65.2464 21.5563 65.4364C21.4659 65.6268 21.3808 65.8192 21.3001 66.014C21.2194 66.2083 21.1435 66.405 21.0729 66.6032C21.0019 66.8014 20.9356 67.0015 20.8747 67.2031C20.8133 67.4047 20.7573 67.6072 20.706 67.8117C20.6548 68.0161 20.6089 68.2211 20.5678 68.4279C20.5267 68.6343 20.4905 68.8417 20.4595 69.05C20.4286 69.2584 20.403 69.4672 20.3822 69.677C20.3619 69.8863 20.3464 70.0965 20.3358 70.3068C20.3256 70.5171 20.3203 70.7273 20.3203 70.9381C20.3203 71.1488 20.3256 71.3591 20.3363 71.5694C20.3464 71.7796 20.3619 71.9899 20.3827 72.1992C20.4035 72.409 20.4291 72.6178 20.46 72.8261C20.4909 73.0345 20.5272 73.2418 20.5683 73.4482C20.6094 73.6546 20.6558 73.8601 20.707 74.0645C20.7582 74.269 20.8143 74.4715 20.8752 74.6731C20.9366 74.8746 21.0028 75.0748 21.0739 75.2729C21.1449 75.4711 21.2208 75.6674 21.3011 75.8622C21.3818 76.0565 21.4673 76.2489 21.5573 76.4393C21.6476 76.6298 21.7424 76.8178 21.8415 77.0034C21.941 77.189 22.045 77.3722 22.1532 77.553C22.2615 77.7333 22.3746 77.9112 22.4916 78.0861C22.6086 78.2616 22.7299 78.4337 22.8556 78.6024C22.9813 78.7716 23.1108 78.9378 23.2442 79.1003C23.3781 79.2632 23.5159 79.4227 23.657 79.5788C23.7986 79.7344 23.9441 79.8872 24.093 80.0361C24.2424 80.1849 24.3946 80.33 24.5508 80.4711C24.7069 80.6127 24.8664 80.75 25.0293 80.8839C25.1922 81.0173 25.3585 81.1468 25.5276 81.272C25.6973 81.3977 25.8694 81.5186 26.0444 81.6355C26.2198 81.7525 26.3977 81.8651 26.5785 81.9734C26.7593 82.0817 26.9425 82.1856 27.1286 82.2847C27.3142 82.3838 27.5027 82.4785 27.6931 82.5684C27.8836 82.6583 28.076 82.7439 28.2708 82.8241C28.4656 82.9049 28.6623 82.9807 28.8605 83.0513C29.0591 83.1224 29.2588 83.1886 29.4608 83.2495C29.6624 83.3104 29.8654 83.3665 30.0699 83.4177C30.2743 83.469 30.4798 83.5149 30.6867 83.556C30.893 83.597 31.1009 83.6328 31.3092 83.6637C31.5176 83.6947 31.7269 83.7203 31.9362 83.7411C32.1459 83.7614 32.3562 83.7769 32.5665 83.7875C32.7772 83.7976 32.9875 83.8025 33.1982 83.8025C33.409 83.8025 33.6197 83.7972 33.83 83.787C34.0407 83.7764 34.2505 83.7609 34.4603 83.7401C34.6701 83.7198 34.8794 83.6937 35.0877 83.6628C35.2961 83.6318 35.5034 83.5961 35.7103 83.555C35.9172 83.5134 36.1226 83.4675 36.3271 83.4163C36.5311 83.365 36.7341 83.309 36.9361 83.2476C37.1377 83.1867 37.3373 83.1204 37.536 83.0494C37.7342 82.9783 37.9309 82.9024 38.1257 82.8217C38.32 82.7415 38.5129 82.6559 38.7033 82.566C38.8938 82.4756 39.0818 82.3809 39.2674 82.2818C39.4535 82.1822 39.6367 82.0788 39.8175 81.97C39.9983 81.8617 40.1762 81.7491 40.3511 81.6321C40.5266 81.5152 40.6987 81.3938 40.8679 81.2687C41.037 81.143 41.2033 81.0134 41.3657 80.8795C41.5286 80.7461 41.6881 80.6084 41.8443 80.4672C42.0004 80.3256 42.1531 80.1806 42.302 80.0312C42.4509 79.8823 42.5959 79.7301 42.7375 79.574C42.8792 79.4178 43.0164 79.2583 43.1503 79.0954C43.2837 78.9325 43.4133 78.7667 43.539 78.5976C43.6641 78.4284 43.7855 78.2563 43.9024 78.0813C44.0194 77.9059 44.132 77.728 44.2403 77.5477C44.3486 77.3669 44.4525 77.1837 44.5516 76.9981C44.6512 76.812 44.7459 76.624 44.8358 76.4335C44.9257 76.2431 45.0113 76.0507 45.0915 75.8564C45.1723 75.6616 45.2481 75.4653 45.3187 75.2667C45.3898 75.0685 45.456 74.8688 45.5169 74.6673C45.5783 74.4657 45.6344 74.2627 45.6851 74.0582C45.7364 73.8543 45.7828 73.6488 45.8234 73.4419C45.8644 73.2355 45.9007 73.0282 45.9316 72.8198C45.9621 72.6115 45.9882 72.4027 46.0085 72.1929C46.0293 71.9836 46.0447 71.7733 46.0549 71.5631C46.065 71.3528 46.0704 71.1426 46.0699 70.9318C46.0699 70.7215 46.0646 70.5108 46.0539 70.301C46.0433 70.0907 46.0278 69.881 46.007 69.6712C45.9858 69.4619 45.9602 69.2531 45.9287 69.0447C45.8978 68.8369 45.8615 68.6295 45.8205 68.4231C45.7789 68.2167 45.733 68.0113 45.6812 67.8073C45.63 67.6033 45.5739 67.4003 45.5126 67.1992C45.4512 66.9977 45.3849 66.798 45.3139 66.5998C45.2428 66.4017 45.1669 66.2054 45.0862 66.0111C45.0055 65.8168 44.9199 65.6244 44.83 65.434C44.7396 65.244 44.6449 65.056 44.5453 64.8704C44.4462 64.6847 44.3423 64.502 44.234 64.3212C44.1258 64.1409 44.0127 63.9631 43.8957 63.7881C43.7787 63.6131 43.6574 63.4415 43.5317 63.2723C43.4065 63.1032 43.277 62.9374 43.1431 62.7749C43.0092 62.6121 42.8719 62.453 42.7303 62.2969C42.5891 62.1412 42.4436 61.9885 42.2948 61.8401C42.1459 61.6912 41.9931 61.5462 41.837 61.4046C41.6809 61.2634 41.5219 61.1262 41.359 60.9923C41.1961 60.8589 41.0303 60.7293 40.8611 60.6041C40.6919 60.4789 40.5193 60.3576 40.3444 60.2406C40.1694 60.1237 39.9915 60.011 39.8107 59.9028C39.6299 59.7945 39.4472 59.691 39.2611 59.592C39.0755 59.4924 38.8875 59.3976 38.697 59.3077C38.5066 59.2178 38.3142 59.1323 38.1199 59.052C37.9251 58.9713 37.7289 58.8954 37.5307 58.8244C37.332 58.7538 37.1324 58.6876 36.9308 58.6262C36.7292 58.5653 36.5262 58.5087 36.3223 58.4575C36.1178 58.4063 35.9124 58.3603 35.706 58.3192C35.4991 58.2782 35.2917 58.2419 35.0834 58.211C34.875 58.18 34.6662 58.1539 34.4564 58.1332C34.2471 58.1124 34.0369 58.0969 33.8266 58.0863C33.6164 58.0761 33.4061 58.0708 33.1953 58.0703ZM33.1953 81.2774C33.0257 81.2774 32.8565 81.273 32.6873 81.2648C32.5181 81.2566 32.349 81.244 32.1807 81.2276C32.012 81.2111 31.8438 81.1903 31.6761 81.1652C31.5089 81.1406 31.3416 81.1116 31.1758 81.0787C31.0095 81.0453 30.8442 81.0086 30.6799 80.9675C30.5155 80.9259 30.3522 80.881 30.1902 80.8317C30.0278 80.7829 29.8673 80.7297 29.7078 80.6727C29.5483 80.6156 29.3903 80.5547 29.2336 80.4899C29.077 80.4252 28.9224 80.3565 28.7691 80.284C28.6159 80.2115 28.4646 80.1356 28.3152 80.0559C28.1659 79.9761 28.0185 79.8925 27.873 79.8055C27.7275 79.7185 27.5844 79.6281 27.4437 79.5338C27.3031 79.4396 27.1643 79.3424 27.0285 79.2414C26.8922 79.1404 26.7588 79.0365 26.6278 78.9291C26.4968 78.8218 26.3687 78.7111 26.243 78.5976C26.1174 78.4835 25.9946 78.367 25.8747 78.2471C25.7553 78.1277 25.6383 78.0049 25.5247 77.8793C25.4107 77.7541 25.3 77.626 25.1927 77.495C25.0854 77.364 24.981 77.2306 24.8799 77.0948C24.7789 76.9584 24.6818 76.8202 24.5875 76.6795C24.4932 76.5389 24.4028 76.3958 24.3158 76.2503C24.2284 76.1053 24.1452 75.9579 24.065 75.8085C23.9852 75.6592 23.9093 75.5083 23.8368 75.3551C23.7643 75.2019 23.6957 75.0472 23.6309 74.8911C23.5661 74.7345 23.5052 74.5764 23.4477 74.4174C23.3907 74.2579 23.3375 74.0969 23.2887 73.935C23.2394 73.773 23.1939 73.6097 23.1529 73.4458C23.1118 73.2815 23.0746 73.1161 23.0417 72.9504C23.0088 72.7841 22.9798 72.6173 22.9547 72.4501C22.93 72.2823 22.9092 72.1146 22.8928 71.9459C22.8759 71.7772 22.8633 71.6085 22.8551 71.4393C22.8469 71.2702 22.8425 71.101 22.8425 70.9318C22.8425 70.7626 22.8469 70.5934 22.8551 70.4243C22.8633 70.2551 22.8759 70.0864 22.8928 69.9177C22.9092 69.7495 22.93 69.5813 22.9547 69.414C22.9798 69.2463 23.0088 69.0795 23.0417 68.9137C23.0746 68.7475 23.1118 68.5821 23.1529 68.4183C23.1939 68.2539 23.2394 68.0906 23.2887 67.9286C23.3375 67.7667 23.3907 67.6057 23.4477 67.4467C23.5052 67.2872 23.5661 67.1291 23.6309 66.9725C23.6957 66.8164 23.7643 66.6617 23.8368 66.5085C23.9093 66.3553 23.9852 66.2045 24.065 66.0551C24.1452 65.9057 24.2284 65.7583 24.3158 65.6133C24.4028 65.4678 24.4932 65.3247 24.5875 65.1841C24.6818 65.0434 24.7789 64.9052 24.8799 64.7688C24.981 64.633 25.0854 64.4996 25.1927 64.3686C25.3 64.2376 25.4107 64.1095 25.5247 63.9843C25.6383 63.8587 25.7553 63.7364 25.8747 63.6165C25.9946 63.4966 26.1174 63.3801 26.243 63.266C26.3687 63.1525 26.4968 63.0422 26.6278 62.9345C26.7588 62.8271 26.8922 62.7232 27.0285 62.6222C27.1643 62.5212 27.3031 62.424 27.4437 62.3298C27.5844 62.236 27.7275 62.1451 27.873 62.0581C28.0185 61.9711 28.1659 61.8875 28.3152 61.8077C28.4646 61.728 28.6159 61.6521 28.7691 61.5796C28.9224 61.5071 29.077 61.4384 29.2336 61.3737C29.3903 61.3089 29.5483 61.248 29.7078 61.1909C29.8673 61.1339 30.0278 61.0807 30.1902 61.0319C30.3522 60.9826 30.5155 60.9377 30.6799 60.8966C30.8442 60.855 31.0095 60.8183 31.1758 60.7849C31.3416 60.752 31.5089 60.723 31.6761 60.6984C31.8438 60.6733 32.012 60.6525 32.1807 60.636C32.349 60.6196 32.5181 60.607 32.6873 60.5988C32.8565 60.5906 33.0257 60.5862 33.1953 60.5862C33.3645 60.5862 33.5342 60.5906 33.7034 60.5988C33.8725 60.607 34.0412 60.6196 34.2099 60.636C34.3786 60.6525 34.5468 60.6733 34.7141 60.6984C34.8818 60.723 35.0486 60.752 35.2149 60.7849C35.3811 60.8183 35.5464 60.855 35.7108 60.8966C35.8751 60.9377 36.0385 60.9826 36.2004 61.0319C36.3624 61.0807 36.5233 61.1339 36.6828 61.1909C36.8424 61.248 37.0004 61.3089 37.157 61.3737C37.3136 61.4384 37.4683 61.5071 37.6215 61.5796C37.7748 61.6521 37.9261 61.728 38.0754 61.8077C38.2248 61.8875 38.3722 61.9711 38.5177 62.0581C38.6627 62.1451 38.8058 62.236 38.9469 62.3298C39.0876 62.424 39.2263 62.5212 39.3622 62.6222C39.4985 62.7232 39.6319 62.8271 39.7629 62.9345C39.8939 63.0422 40.022 63.1525 40.1476 63.266C40.2733 63.3801 40.3956 63.4966 40.5155 63.6165C40.6354 63.7364 40.7523 63.8587 40.8659 63.9843C40.98 64.1095 41.0902 64.2376 41.198 64.3686C41.3053 64.4996 41.4097 64.633 41.5107 64.7688C41.6113 64.9052 41.7089 65.0434 41.8032 65.1841C41.8974 65.3247 41.9878 65.4678 42.0748 65.6133C42.1618 65.7583 42.2455 65.9057 42.3252 66.0551C42.4055 66.2045 42.4813 66.3553 42.5539 66.5085C42.6264 66.6617 42.695 66.8164 42.7598 66.9725C42.8245 67.1291 42.8854 67.2872 42.9425 67.4467C42.9995 67.6057 43.0527 67.7667 43.102 67.9286C43.1513 68.0906 43.1962 68.2539 43.2373 68.4183C43.2789 68.5821 43.3156 68.7475 43.349 68.9137C43.3819 69.0795 43.4109 69.2463 43.436 69.414C43.4606 69.5813 43.4814 69.7495 43.4979 69.9177C43.5148 70.0864 43.5269 70.2551 43.5356 70.4243C43.5438 70.5934 43.5477 70.7626 43.5477 70.9318C43.5477 71.101 43.5438 71.2702 43.5356 71.4393C43.5269 71.6085 43.5148 71.7772 43.4979 71.9459C43.4814 72.1141 43.4606 72.2823 43.436 72.4501C43.4109 72.6173 43.3819 72.7841 43.349 72.9504C43.3156 73.1161 43.2789 73.2815 43.2373 73.4458C43.1962 73.6097 43.1513 73.773 43.102 73.935C43.0527 74.0969 42.9995 74.2579 42.9425 74.4169C42.8854 74.5764 42.8245 74.7345 42.7598 74.8911C42.695 75.0472 42.6264 75.2019 42.5539 75.3551C42.4813 75.5083 42.4055 75.6592 42.3252 75.8085C42.2455 75.9579 42.1618 76.1053 42.0748 76.2503C41.9878 76.3958 41.8974 76.5389 41.8032 76.6795C41.7089 76.8202 41.6113 76.9584 41.5107 77.0948C41.4097 77.2306 41.3053 77.364 41.198 77.495C41.0902 77.626 40.98 77.7541 40.8659 77.8793C40.7523 78.0049 40.6354 78.1277 40.5155 78.2471C40.3956 78.367 40.2733 78.4835 40.1476 78.5976C40.022 78.7111 39.8939 78.8218 39.7629 78.9291C39.6319 79.0365 39.4985 79.1404 39.3622 79.2414C39.2263 79.3424 39.0876 79.4396 38.9469 79.5338C38.8058 79.6281 38.6627 79.7185 38.5177 79.8055C38.3722 79.8925 38.2248 79.9761 38.0754 80.0559C37.9261 80.1356 37.7748 80.2115 37.6215 80.284C37.4683 80.3565 37.3136 80.4252 37.157 80.4899C37.0004 80.5547 36.8424 80.6156 36.6828 80.6727C36.5233 80.7297 36.3624 80.7829 36.2004 80.8317C36.0385 80.881 35.8751 80.9259 35.7108 80.9675C35.5464 81.0086 35.3811 81.0453 35.2149 81.0787C35.0486 81.1116 34.8818 81.1406 34.7141 81.1652C34.5468 81.1903 34.3786 81.2111 34.2099 81.2276C34.0412 81.244 33.8725 81.2566 33.7034 81.2648C33.5342 81.273 33.3645 81.2774 33.1953 81.2774Z" fill="#F0AE1C"/>
</g>
<path d="M30.5137 67.0293V68.4968C30.5137 68.9667 31.0405 69.3712 31.4968 69.6439L32.7488 70.091V65.4588H32.2785C32.1687 65.4526 32.0595 65.4569 31.9507 65.4719C31.8425 65.4869 31.7361 65.5125 31.6327 65.5487C31.5287 65.5845 31.4297 65.6304 31.3349 65.686C31.2407 65.7416 31.1522 65.8059 31.0705 65.8789C30.9883 65.9519 30.9144 66.0321 30.8482 66.1196C30.7819 66.2071 30.7249 66.2999 30.6775 66.399C30.6297 66.4976 30.592 66.6001 30.5644 66.7059C30.5369 66.8123 30.52 66.9201 30.5137 67.0293Z" fill="#F0AE1C"/>
<path d="M33.1958 61.7578C33.0455 61.7578 32.8956 61.7612 32.7453 61.7684C32.5955 61.7762 32.4456 61.7868 32.2963 61.8018C32.1469 61.8163 31.998 61.8347 31.8491 61.8569C31.7008 61.8787 31.5528 61.9043 31.4054 61.9338C31.2585 61.9632 31.112 61.9961 30.966 62.0324C30.8205 62.0686 30.676 62.1087 30.532 62.1522C30.3884 62.1962 30.2458 62.2431 30.1047 62.2934C29.963 62.3441 29.8229 62.3983 29.6841 62.4558C29.5454 62.5128 29.4081 62.5737 29.2723 62.638C29.1365 62.7023 29.0026 62.7695 28.8701 62.8406C28.7377 62.9111 28.6072 62.9851 28.4781 63.0624C28.3496 63.1393 28.2224 63.2195 28.0977 63.3031C27.973 63.3863 27.8502 63.4728 27.7294 63.5622C27.609 63.6517 27.4906 63.744 27.3746 63.8392C27.2586 63.9344 27.1445 64.0321 27.0333 64.1331C26.9222 64.2336 26.8134 64.3371 26.7071 64.4434C26.6012 64.5493 26.4978 64.658 26.3967 64.7692C26.2957 64.8804 26.1976 64.994 26.1024 65.11C26.0071 65.226 25.9148 65.3444 25.8254 65.4648C25.736 65.5856 25.6495 65.7084 25.5663 65.8331C25.4827 65.9578 25.4025 66.0845 25.3251 66.213C25.2478 66.3421 25.1738 66.4726 25.1032 66.605C25.0322 66.737 24.965 66.8714 24.9007 67.0067C24.8364 67.1425 24.7755 67.2798 24.718 67.4186C24.6605 67.5568 24.6068 67.697 24.5561 67.8381C24.5053 67.9797 24.4584 68.1219 24.4149 68.2654C24.3714 68.409 24.3313 68.554 24.2946 68.6995C24.2583 68.845 24.2254 68.9914 24.196 69.1384C24.1665 69.2858 24.1409 69.4337 24.1191 69.5821C24.0969 69.7305 24.0785 69.8794 24.064 70.0287C24.049 70.1781 24.0379 70.3275 24.0306 70.4773C24.0234 70.6276 24.0195 70.7775 24.0195 70.9273C24.0195 71.0777 24.0234 71.2275 24.0306 71.3773C24.0379 71.5272 24.049 71.677 24.064 71.8264C24.0785 71.9758 24.0969 72.1246 24.1191 72.273C24.1409 72.4214 24.1665 72.5693 24.196 72.7163C24.2254 72.8637 24.2583 73.0102 24.2946 73.1557C24.3313 73.3012 24.3714 73.4457 24.4149 73.5892C24.4584 73.7328 24.5053 73.8754 24.5561 74.0165C24.6068 74.1582 24.6605 74.2979 24.718 74.4366C24.7755 74.5753 24.8364 74.7126 24.9007 74.8479C24.965 74.9838 25.0322 75.1177 25.1032 75.2501C25.1738 75.3825 25.2478 75.5131 25.3251 75.6416C25.4025 75.7707 25.4827 75.8973 25.5663 76.022C25.6495 76.1467 25.736 76.2695 25.8254 76.3899C25.9148 76.5107 26.0071 76.6287 26.1024 76.7447C26.1976 76.8607 26.2957 76.9743 26.3967 77.0855C26.4978 77.1966 26.6012 77.3054 26.7071 77.4117C26.8134 77.5176 26.9222 77.621 27.0333 77.722C27.1445 77.8226 27.2586 77.9207 27.3746 78.0159C27.4906 78.1112 27.609 78.2035 27.7294 78.2929C27.8502 78.3823 27.973 78.4684 28.0977 78.552C28.2224 78.6351 28.3496 78.7159 28.4781 78.7927C28.6072 78.8701 28.7377 78.944 28.8701 79.0146C29.0026 79.0852 29.1365 79.1528 29.2723 79.2171C29.4081 79.2809 29.5454 79.3418 29.6841 79.3993C29.8229 79.4569 29.963 79.511 30.1047 79.5613C30.2458 79.612 30.3884 79.6589 30.532 79.7024C30.676 79.7459 30.8205 79.786 30.966 79.8228C31.112 79.859 31.2585 79.8919 31.4054 79.9214C31.5528 79.9504 31.7008 79.976 31.8491 79.9982C31.998 80.02 32.1469 80.0384 32.2963 80.0533C32.4456 80.0678 32.5955 80.079 32.7453 80.0862C32.8956 80.0939 33.0455 80.0973 33.1958 80.0973C33.3461 80.0973 33.496 80.0939 33.6458 80.0862C33.7962 80.079 33.9455 80.0678 34.0954 80.0533C34.2447 80.0384 34.3936 80.02 34.542 79.9982C34.6909 79.976 34.8388 79.9504 34.9857 79.9214C35.1332 79.8919 35.2796 79.859 35.4256 79.8228C35.5711 79.786 35.7156 79.7459 35.8597 79.7024C36.0032 79.6589 36.1458 79.612 36.287 79.5613C36.4286 79.511 36.5688 79.4569 36.7075 79.3993C36.8462 79.3418 36.9835 79.2809 37.1188 79.2171C37.2547 79.1528 37.389 79.0852 37.5215 79.0146C37.6539 78.944 37.7844 78.8701 37.913 78.7927C38.0421 78.7159 38.1687 78.6351 38.2939 78.552C38.4186 78.4684 38.5414 78.3823 38.6618 78.2929C38.7826 78.2035 38.901 78.1112 39.017 78.0159C39.133 77.9207 39.2466 77.8226 39.3583 77.722C39.4695 77.621 39.5782 77.5176 39.6841 77.4117C39.7904 77.3054 39.8939 77.1966 39.9949 77.0855C40.0954 76.9743 40.1936 76.8607 40.2888 76.7447C40.3845 76.6287 40.4768 76.5107 40.5662 76.3899C40.6557 76.2695 40.7422 76.1467 40.8253 76.022C40.9089 75.8973 40.9892 75.7707 41.0665 75.6416C41.1434 75.5131 41.2178 75.3825 41.2884 75.2501C41.359 75.1177 41.4266 74.9838 41.4909 74.8479C41.5552 74.7126 41.6161 74.5753 41.6736 74.4366C41.7307 74.2979 41.7848 74.1582 41.8356 74.0165C41.8863 73.8754 41.9332 73.7328 41.9767 73.5892C42.0202 73.4457 42.0603 73.3012 42.0971 73.1557C42.1333 73.0102 42.1662 72.8637 42.1957 72.7163C42.2247 72.5693 42.2503 72.4214 42.2725 72.273C42.2948 72.1246 42.3131 71.9758 42.3276 71.8264C42.3426 71.677 42.3532 71.5272 42.361 71.3773C42.3682 71.2275 42.3721 71.0777 42.3721 70.9273C42.3716 70.7775 42.3677 70.6276 42.36 70.4778C42.3528 70.3279 42.3412 70.1786 42.3262 70.0292C42.3117 69.8799 42.2928 69.731 42.2706 69.5826C42.2484 69.4342 42.2227 69.2868 42.1933 69.1393C42.1638 68.9924 42.1309 68.8459 42.0942 68.7004C42.0574 68.555 42.0173 68.4109 41.9738 68.2673C41.9298 68.1238 41.8824 67.9812 41.8322 67.84C41.7814 67.6989 41.7273 67.5592 41.6698 67.4205C41.6122 67.2818 41.5513 67.145 41.487 67.0091C41.4228 66.8738 41.3551 66.7399 41.284 66.6075C41.2135 66.4755 41.1395 66.345 41.0622 66.2164C40.9848 66.0878 40.9046 65.9612 40.821 65.8365C40.7378 65.7118 40.6513 65.589 40.5619 65.4686C40.4725 65.3483 40.3801 65.2299 40.2849 65.1138C40.1892 64.9978 40.0916 64.8842 39.9905 64.7736C39.89 64.6624 39.7861 64.5536 39.6802 64.4473C39.5739 64.3414 39.4651 64.238 39.3539 64.1374C39.2428 64.0364 39.1292 63.9388 39.0132 63.8436C38.8972 63.7483 38.7787 63.656 38.6584 63.5666C38.538 63.4772 38.4152 63.3906 38.2905 63.3075C38.1658 63.2239 38.0387 63.1436 37.9101 63.0663C37.7815 62.9894 37.651 62.9155 37.5186 62.8444C37.3861 62.7739 37.2522 62.7062 37.1164 62.6419C36.9811 62.5776 36.8438 62.5167 36.7051 62.4592C36.5663 62.4017 36.4267 62.3475 36.285 62.2973C36.1439 62.2465 36.0013 62.1991 35.8577 62.1556C35.7142 62.1121 35.5696 62.072 35.4241 62.0353C35.2787 61.9985 35.1322 61.9657 34.9848 61.9362C34.8378 61.9067 34.6899 61.8811 34.5415 61.8588C34.3931 61.8366 34.2442 61.8178 34.0949 61.8028C33.9455 61.7883 33.7957 61.7767 33.6458 61.7694C33.496 61.7617 33.3457 61.7578 33.1958 61.7578ZM37.0546 67.711C37.0546 67.7497 37.0507 67.7878 37.043 67.8255C37.0357 67.8637 37.0246 67.9005 37.0096 67.9358C36.9951 67.9715 36.9767 68.0054 36.9555 68.0377C36.9337 68.0696 36.9095 68.0991 36.882 68.1267C36.8549 68.1538 36.825 68.1784 36.793 68.1997C36.7607 68.2209 36.7268 68.2393 36.6915 68.2538C36.6558 68.2688 36.619 68.2799 36.5808 68.2876C36.5431 68.2949 36.505 68.2988 36.4663 68.2988C36.4276 68.2988 36.3894 68.2949 36.3512 68.2876C36.3135 68.2799 36.2768 68.2688 36.241 68.2538C36.2053 68.2393 36.1714 68.2209 36.1395 68.1997C36.1071 68.1784 36.0777 68.1538 36.0501 68.1267C36.023 68.0991 35.9984 68.0696 35.9771 68.0377C35.9559 68.0054 35.9375 67.9715 35.923 67.9358C35.908 67.9005 35.8969 67.8637 35.8891 67.8255C35.8819 67.7878 35.878 67.7497 35.878 67.711V67.029C35.8722 66.9207 35.8553 66.8139 35.8287 66.7085C35.8017 66.6031 35.7644 66.5016 35.7176 66.4035C35.6707 66.3054 35.6146 66.2125 35.5498 66.1255C35.4846 66.0385 35.4116 65.9583 35.3309 65.8858C35.2501 65.8128 35.1631 65.7485 35.0698 65.6929C34.9765 65.6369 34.8784 65.5904 34.7764 65.5542C34.674 65.5175 34.5686 65.4909 34.4613 65.4749C34.3535 65.459 34.2457 65.4532 34.1369 65.4585H33.9252V70.5136L35.3038 70.9839C35.3381 70.9969 35.371 71.0124 35.4029 71.0308C36.4851 71.6611 37.0546 72.4417 37.0546 73.2552V74.7271C37.0521 74.8199 37.0449 74.9122 37.0333 75.0045C37.0217 75.0969 37.0057 75.1882 36.9854 75.2786C36.9646 75.369 36.9395 75.4584 36.91 75.5464C36.881 75.6344 36.8472 75.7209 36.809 75.806C36.7713 75.8906 36.7292 75.9732 36.6833 76.0539C36.6369 76.1347 36.5871 76.2125 36.533 76.2884C36.4793 76.3638 36.4218 76.4368 36.3609 76.5069C36.3 76.5769 36.2357 76.6437 36.1681 76.7075C36.1004 76.7708 36.0298 76.8312 35.9559 76.8878C35.8824 76.9448 35.8065 76.9975 35.7272 77.0468C35.6484 77.0961 35.5677 77.141 35.4841 77.1821C35.4009 77.2232 35.3159 77.2604 35.2289 77.2933C35.1419 77.3262 35.0539 77.3542 34.964 77.3784C34.8741 77.4025 34.7837 77.4224 34.6918 77.4373C34.6 77.4523 34.5082 77.463 34.4154 77.4692C34.3225 77.475 34.2297 77.4765 34.1369 77.4736H33.9252V77.9434C33.9252 77.9821 33.9214 78.0203 33.9136 78.0585C33.9064 78.0962 33.8952 78.1329 33.8803 78.1687C33.8658 78.2045 33.8474 78.2383 33.8261 78.2702C33.8044 78.3021 33.7802 78.3321 33.7527 78.3591C33.7256 78.3867 33.6956 78.4109 33.6637 78.4326C33.6318 78.4539 33.5975 78.4718 33.5622 78.4867C33.5264 78.5012 33.4897 78.5128 33.4515 78.5201C33.4138 78.5278 33.3756 78.5317 33.337 78.5317C33.2983 78.5317 33.2601 78.5278 33.2224 78.5201C33.1842 78.5128 33.1475 78.5012 33.1117 78.4867C33.0759 78.4718 33.0421 78.4539 33.0102 78.4326C32.9778 78.4109 32.9483 78.3867 32.9208 78.3591C32.8937 78.3321 32.8695 78.3021 32.8478 78.2702C32.8265 78.2383 32.8082 78.2045 32.7937 78.1687C32.7787 78.1329 32.7675 78.0962 32.7598 78.0585C32.7526 78.0203 32.7487 77.9821 32.7487 77.9434V77.4736H32.2784C32.1851 77.4775 32.0923 77.477 31.999 77.4717C31.9062 77.4668 31.8134 77.4572 31.7215 77.4427C31.6292 77.4286 31.5383 77.4098 31.448 77.3866C31.358 77.3629 31.2691 77.3354 31.1816 77.3035C31.0941 77.2715 31.0086 77.2348 30.9249 77.1947C30.8408 77.1541 30.7591 77.1091 30.6799 77.0608C30.6001 77.012 30.5237 76.9598 30.4493 76.9037C30.3749 76.8472 30.3038 76.7877 30.2352 76.7244C30.167 76.6611 30.1023 76.5943 30.0404 76.5247C29.9785 76.4551 29.9205 76.3826 29.8659 76.3072C29.8113 76.2318 29.7605 76.1535 29.7136 76.0733C29.6667 75.993 29.6242 75.9104 29.5855 75.8253C29.5469 75.7407 29.5125 75.6547 29.4826 75.5662C29.4521 75.4782 29.4265 75.3888 29.4052 75.2984C29.384 75.2076 29.3675 75.1162 29.355 75.0239C29.3429 74.9316 29.3356 74.8388 29.3322 74.7459V74.0596C29.3322 74.0209 29.3361 73.9827 29.3438 73.9445C29.3511 73.9068 29.3622 73.8701 29.3772 73.8343C29.3922 73.7985 29.4101 73.7647 29.4313 73.7328C29.4531 73.7009 29.4773 73.6709 29.5048 73.6439C29.5319 73.6163 29.5618 73.5921 29.5937 73.5704C29.6261 73.5491 29.66 73.5312 29.6957 73.5163C29.731 73.5018 29.7678 73.4902 29.8059 73.4829C29.8436 73.4752 29.8818 73.4718 29.9205 73.4718C29.9592 73.4718 29.9974 73.4752 30.0355 73.4829C30.0732 73.4902 30.11 73.5018 30.1458 73.5163C30.1815 73.5312 30.2154 73.5491 30.2473 73.5704C30.2796 73.5921 30.3091 73.6163 30.3367 73.6439C30.3638 73.6709 30.3884 73.7009 30.4097 73.7328C30.4309 73.7647 30.4493 73.7985 30.4638 73.8343C30.4788 73.8701 30.4899 73.9068 30.4976 73.9445C30.5049 73.9827 30.5088 74.0209 30.5088 74.0596V74.7459C30.5141 74.8557 30.5295 74.9635 30.5561 75.0703C30.5827 75.1766 30.6195 75.2796 30.6659 75.3792C30.7127 75.4782 30.7688 75.572 30.8341 75.6605C30.8993 75.7485 30.9728 75.8297 31.054 75.9036C31.1352 75.9776 31.2232 76.0423 31.3174 76.0989C31.4117 76.1554 31.5103 76.2023 31.6137 76.2396C31.7172 76.2763 31.823 76.3029 31.9318 76.3193C32.0406 76.3353 32.1498 76.3406 32.2595 76.3353H32.7298V71.3411L31.0313 70.7345L30.9278 70.6876C29.8785 70.0621 29.3322 69.324 29.3322 68.4965V67.029C29.3347 66.9361 29.3419 66.8438 29.3535 66.7515C29.3651 66.6592 29.3811 66.5678 29.4018 66.4769C29.4222 66.3866 29.4473 66.2971 29.4768 66.2087C29.5063 66.1207 29.5401 66.0342 29.5783 65.9491C29.616 65.8645 29.658 65.7819 29.7044 65.7011C29.7504 65.6204 29.8006 65.5421 29.8548 65.4662C29.9084 65.3908 29.9659 65.3178 30.0273 65.2477C30.0882 65.1777 30.153 65.1109 30.2207 65.0471C30.2883 64.9833 30.3589 64.9234 30.4329 64.8668C30.5063 64.8098 30.5827 64.7571 30.662 64.7078C30.7408 64.6585 30.822 64.6136 30.9051 64.5725C30.9887 64.5314 31.0738 64.4942 31.1613 64.4618C31.2483 64.4289 31.3368 64.4004 31.4267 64.3767C31.5166 64.3525 31.607 64.3332 31.6988 64.3182C31.7907 64.3032 31.883 64.2926 31.9758 64.2868C32.0686 64.281 32.1619 64.2796 32.2547 64.2829H32.725V63.9252C32.725 63.8871 32.7289 63.8484 32.7366 63.8107C32.7439 63.773 32.755 63.7362 32.77 63.7005C32.785 63.6647 32.8028 63.6309 32.8241 63.599C32.8459 63.5666 32.87 63.5371 32.8976 63.51C32.9246 63.4825 32.9546 63.4583 32.9865 63.4366C33.0189 63.4153 33.0527 63.3969 33.0885 63.3824C33.1238 63.3674 33.161 63.3563 33.1987 63.3491C33.2364 63.3413 33.2746 63.3375 33.3133 63.3375C33.3519 63.3375 33.3901 63.3413 33.4283 63.3491C33.466 63.3563 33.5028 63.3674 33.5385 63.3824C33.5743 63.3969 33.6081 63.4153 33.64 63.4366C33.6724 63.4583 33.7019 63.4825 33.7295 63.51C33.7565 63.5371 33.7812 63.5666 33.8024 63.599C33.8237 63.6309 33.8421 63.6647 33.8571 63.7005C33.8716 63.7362 33.8827 63.773 33.8904 63.8107C33.8977 63.8484 33.9015 63.8871 33.9015 63.9252V64.2829H34.1132C34.2061 64.2796 34.2989 64.281 34.3917 64.2873C34.4845 64.2931 34.5768 64.3037 34.6682 64.3187C34.76 64.3342 34.8509 64.3535 34.9403 64.3777C35.0302 64.4018 35.1187 64.4304 35.2057 64.4632C35.2922 64.4956 35.3777 64.5328 35.4609 64.5739C35.544 64.615 35.6252 64.6604 35.704 64.7097C35.7828 64.7586 35.8592 64.8117 35.9327 64.8683C36.0061 64.9248 36.0767 64.9853 36.1444 65.0491C36.212 65.1124 36.2763 65.1796 36.3372 65.2492C36.3986 65.3193 36.4557 65.3923 36.5098 65.4682C36.5634 65.5436 36.6137 65.6219 36.6596 65.7026C36.7056 65.7828 36.7476 65.8655 36.7858 65.9506C36.8235 66.0351 36.8573 66.1217 36.8868 66.2096C36.9163 66.2976 36.941 66.387 36.9617 66.4774C36.9825 66.5683 36.9985 66.6597 37.0101 66.7515C37.0217 66.8438 37.0284 66.9361 37.0309 67.029L37.0546 67.711Z" fill="#F0AE1C"/>
<defs>
<linearGradient id="paint0_linear_3_3460" x1="33.064" y1="46.4912" x2="33.064" y2="89.8724" gradientUnits="userSpaceOnUse">
<stop stop-color="#DF8743"/>
<stop offset="1" stop-color="#723005"/>
</linearGradient>
<linearGradient id="paint1_linear_3_3460" x1="33.0646" y1="28.708" x2="33.0646" y2="49.1753" gradientUnits="userSpaceOnUse">
<stop stop-color="#DF8743"/>
<stop offset="1" stop-color="#723005"/>
</linearGradient>
<linearGradient id="paint2_linear_3_3460" x1="133.387" y1="18.1943" x2="61.041" y2="18.1943" gradientUnits="userSpaceOnUse">
<stop stop-color="#194060"/>
<stop offset="1" stop-color="#3484C6"/>
</linearGradient>
<linearGradient id="paint3_linear_3_3460" x1="133.477" y1="39.0064" x2="61.0273" y2="39.0064" gradientUnits="userSpaceOnUse">
<stop stop-color="#194060"/>
<stop offset="1" stop-color="#3484C6"/>
</linearGradient>
<linearGradient id="paint4_linear_3_3460" x1="133.339" y1="65.8168" x2="63.3535" y2="65.8168" gradientUnits="userSpaceOnUse">
<stop stop-color="#194060"/>
<stop offset="1" stop-color="#3484C6"/>
</linearGradient>
<linearGradient id="paint5_linear_3_3460" x1="133.336" y1="52.4802" x2="61.0078" y2="52.4802" gradientUnits="userSpaceOnUse">
<stop stop-color="#194060"/>
<stop offset="1" stop-color="#3484C6"/>
</linearGradient>
<linearGradient id="paint6_linear_3_3460" x1="133.338" y1="79.1504" x2="69.1367" y2="79.1504" gradientUnits="userSpaceOnUse">
<stop stop-color="#194060"/>
<stop offset="1" stop-color="#3484C6"/>
</linearGradient>
</defs>
</svg>
