<svg width="92" height="91" viewBox="0 0 92 91" fill="none" xmlns="http://www.w3.org/2000/svg">
<path d="M53.5816 45.9312C53.5789 46.7862 53.5364 47.6386 53.4488 48.4884C53.3638 49.3381 53.2364 50.1826 53.0664 51.019C52.8991 51.8581 52.6893 52.684 52.4397 53.5019C52.1901 54.3198 51.9033 55.1217 51.574 55.9104C51.2448 56.699 50.881 57.4691 50.4773 58.2233C50.0737 58.9748 49.6329 59.7077 49.1602 60.4167C48.6849 61.1257 48.1751 61.8108 47.6333 62.4694C47.0916 63.1306 46.518 63.7626 45.9153 64.3653C45.3098 64.9681 44.6778 65.5417 44.0193 66.0834C43.3581 66.6251 42.6756 67.1323 41.9639 67.6077C41.2549 68.083 40.5247 68.5211 39.7705 68.9221C39.019 69.3257 38.249 69.6895 37.4603 70.0188C36.6716 70.3454 35.8697 70.6322 35.0544 70.8818C34.2366 71.1288 33.4107 71.3359 32.5742 71.5032C31.7378 71.6705 30.896 71.798 30.0462 71.8829C29.1965 71.9653 28.3468 72.0104 27.4917 72.0104C26.642 72.0078 25.7922 71.9653 24.9425 71.8776C24.0954 71.7927 23.2562 71.6652 22.4198 71.4979C21.586 71.328 20.7601 71.1208 19.9449 70.8712C19.1297 70.6216 18.3304 70.3322 17.5444 70.0055C16.7583 69.6763 15.9883 69.3098 15.2394 68.9062C14.4879 68.5026 13.7603 68.0644 13.0513 67.5891C12.345 67.1137 11.6625 66.6039 11.0066 66.0622C10.3481 65.5178 9.71873 64.9442 9.11859 64.3414C8.5158 63.736 7.94754 63.104 7.40848 62.4428C6.86677 61.7842 6.36223 61.0991 5.88956 60.3875C5.41954 59.6785 4.98139 58.9456 4.58307 58.1941C4.1821 57.4399 3.8183 56.6698 3.49433 55.8812C3.17037 55.0925 2.88624 54.2905 2.63928 53.4727C2.39232 52.6574 2.18785 51.8289 2.02321 50.9925C1.85857 50.156 1.73377 49.3116 1.65145 48.4645C1.56913 47.6147 1.5293 46.7623 1.5293 45.9099C1.53195 45.0575 1.57444 44.2078 1.65941 43.358C1.74439 42.5083 1.8692 41.6665 2.03649 40.83C2.20378 39.9936 2.41091 39.1677 2.66052 38.3525C2.90748 37.5346 3.19692 36.7327 3.52355 35.9466C3.85017 35.158 4.21396 34.3879 4.61759 33.6364C5.01857 32.8849 5.45672 32.1547 5.93204 31.4456C6.40472 30.7366 6.91191 30.0515 7.45362 29.393C7.99533 28.7344 8.56626 28.1051 9.16905 27.5023C9.77183 26.8995 10.4038 26.3286 11.0624 25.7869C11.7209 25.2452 12.406 24.7406 13.1151 24.2653C13.8241 23.7926 14.5517 23.3545 15.3032 22.9535C16.0546 22.5525 16.8247 22.1887 17.6134 21.8621C18.3994 21.5355 19.2014 21.2487 20.0166 21.0017C20.8318 20.7548 21.6577 20.5503 22.4915 20.383C23.3279 20.2184 24.1697 20.0936 25.0168 20.0086C25.8639 19.9263 26.7163 19.8838 27.5661 19.8838C28.4185 19.8864 29.2682 19.9263 30.1153 20.0113C30.965 20.0962 31.8042 20.221 32.6406 20.3883C33.4771 20.553 34.3003 20.7601 35.1155 21.0097C35.9307 21.2567 36.7327 21.5434 37.5187 21.8701C38.3074 22.1967 39.0748 22.5605 39.8263 22.9641C40.5778 23.3651 41.308 23.8032 42.017 24.2786C42.7234 24.7512 43.4085 25.2584 44.0671 25.8001C44.7256 26.3419 45.355 26.9128 45.9577 27.5156C46.5605 28.121 47.1315 28.7504 47.6705 29.4116C48.2122 30.0701 48.7194 30.7526 49.1921 31.4642C49.6648 32.1732 50.1029 32.9035 50.5065 33.655C50.9075 34.4065 51.2713 35.1766 51.5979 35.9652C51.9246 36.7539 52.2113 37.5559 52.4583 38.3711C52.7053 39.189 52.9124 40.0148 53.0797 40.8513C53.247 41.6877 53.3718 42.5295 53.4541 43.3793C53.5391 44.2264 53.5816 45.0788 53.5816 45.9312Z" fill="url(#paint0_linear_3_3024)"/>
<path d="M90.0485 45.7912C90.0485 47.0684 89.9556 48.3351 89.767 49.5991C89.5811 50.8604 89.305 52.1032 88.9359 53.322C88.5668 54.5436 88.1127 55.7332 87.571 56.8857C87.0293 58.0408 86.4052 59.1508 85.7015 60.213C84.9978 61.2751 84.2198 62.2816 83.3674 63.2322C82.515 64.1802 81.5988 65.0618 80.619 65.8771C79.6391 66.6896 78.6035 67.4278 77.5147 68.0917C76.426 68.7529 75.2948 69.3318 74.1211 69.8284C72.9474 70.3249 71.7444 70.7339 70.5123 71.0552C69.2775 71.3738 68.0295 71.6022 66.7628 71.7376C65.4962 71.8757 64.2268 71.9182 62.9522 71.8678C61.6803 71.8173 60.4163 71.6739 59.1655 71.4402C57.9122 71.2039 56.6853 70.8799 55.4798 70.463C54.2768 70.0488 53.1084 69.5469 51.9772 68.96C50.846 68.3732 49.7652 67.7067 48.7296 66.9605C47.6966 66.2143 46.7221 65.3964 45.8086 64.5068C46.4353 63.904 47.0301 63.2694 47.5931 62.6029C48.156 61.939 48.6845 61.2486 49.1757 60.529C49.6696 59.812 50.1264 59.0711 50.5459 58.309C50.9628 57.5442 51.3426 56.7609 51.6825 55.9589C52.025 55.157 52.3224 54.3417 52.58 53.5079C52.8402 52.6768 53.0553 51.835 53.2279 50.9799C53.4032 50.1249 53.5333 49.2672 53.6209 48.3988C53.7086 47.5332 53.7511 46.6622 53.7511 45.7912C53.7511 44.9202 53.7086 44.0518 53.6209 43.1835C53.5333 42.3178 53.4032 41.4575 53.2279 40.6024C53.0553 39.75 52.8402 38.9056 52.58 38.0744C52.3224 37.2433 52.025 36.4254 51.6825 35.6234C51.3426 34.8215 50.9628 34.0381 50.5459 33.276C50.1264 32.5112 49.6696 31.7704 49.1757 31.0534C48.6845 30.3364 48.156 29.6433 47.5931 28.9795C47.0301 28.3156 46.4353 27.681 45.8086 27.0755C46.7221 26.1859 47.6966 25.3654 48.7296 24.6192C49.7626 23.8704 50.8433 23.2012 51.9746 22.6143C53.1058 22.0248 54.2742 21.523 55.4798 21.106C56.6853 20.6891 57.9122 20.3625 59.1655 20.1262C60.4189 19.8898 61.6803 19.7438 62.9549 19.6933C64.2295 19.6429 65.4988 19.6854 66.7681 19.8235C68.0348 19.9589 69.2855 20.1873 70.5203 20.5059C71.7524 20.8246 72.958 21.2335 74.1317 21.7301C75.3054 22.2266 76.4366 22.8082 77.528 23.4694C78.6168 24.1333 79.6524 24.8741 80.6323 25.6894C81.6121 26.5046 82.5283 27.3862 83.3807 28.3369C84.2331 29.2849 85.0111 30.2939 85.7148 31.3561C86.4185 32.4209 87.0399 33.5309 87.5816 34.6861C88.1233 35.8438 88.5774 37.0308 88.9438 38.255C89.3129 39.4765 89.5891 40.7192 89.7723 41.9832C89.9582 43.2446 90.0485 44.5139 90.0485 45.7912Z" fill="url(#paint1_linear_3_3024)"/>
<path d="M30.5355 50.8628C30.5913 50.1511 30.3895 49.5191 29.9327 48.9721C29.2848 48.3799 28.5439 47.9497 27.7075 47.6842C26.7887 47.3469 25.8885 46.9592 25.0095 46.5237C24.3032 46.1599 23.6579 45.7085 23.071 45.1721C22.524 44.6729 22.0991 44.0834 21.8017 43.4062C21.4725 42.6441 21.3078 41.8501 21.3078 41.0216C21.2866 40.2755 21.414 39.5532 21.6902 38.8601C21.9664 38.167 22.3673 37.5563 22.8958 37.0305C23.4587 36.4941 24.0934 36.0719 24.8024 35.7612C25.5114 35.4478 26.2523 35.2673 27.025 35.2168V32.1152H29.3273V35.2965C30.1027 35.3788 30.8303 35.6018 31.518 35.9683C32.2058 36.3321 32.798 36.8154 33.2972 37.4102C33.7858 38.0581 34.1496 38.7725 34.3913 39.5479C34.6302 40.3233 34.7312 41.1172 34.694 41.9271H30.5355C30.6046 40.9818 30.3709 40.1188 29.8371 39.3354C29.6035 39.0513 29.3193 38.8335 28.9847 38.6822C28.6502 38.5308 28.297 38.4618 27.9305 38.4777C27.2242 38.4299 26.6161 38.653 26.1036 39.1442C25.6282 39.6806 25.4105 40.3047 25.453 41.0216C25.4185 41.6935 25.6309 42.2777 26.0876 42.7689C26.7807 43.3797 27.5641 43.8285 28.4377 44.1206C29.407 44.5003 30.3496 44.9358 31.2658 45.4244C31.9482 45.8015 32.567 46.2635 33.1219 46.8079C33.6318 47.3151 34.0221 47.8966 34.2983 48.5578C34.5718 49.296 34.7046 50.0608 34.694 50.8468C34.7152 51.5904 34.5878 52.3047 34.3116 52.9924C34.0354 53.6802 33.6344 54.2856 33.106 54.8088C32.5457 55.3399 31.9084 55.7594 31.1994 56.0675C30.4904 56.3755 29.7495 56.5561 28.9794 56.6039V59.4664H26.7568V56.6198C25.8938 56.572 25.0679 56.3675 24.2819 56.0064C23.4959 55.6479 22.8002 55.1566 22.1974 54.5379C21.6371 53.8741 21.2202 53.1305 20.9467 52.3047C20.6705 51.4815 20.559 50.6344 20.6094 49.7661H24.7546C24.6909 50.7486 24.9591 51.6302 25.5645 52.4056C25.8699 52.7189 26.2257 52.9553 26.6347 53.1146C27.0409 53.2713 27.4632 53.3376 27.8987 53.3137C28.6555 53.3562 29.322 53.1332 29.9009 52.6446C30.3762 52.1453 30.5886 51.5532 30.5355 50.8628Z" fill="black"/>
<path d="M69.2629 50.8471C69.2975 50.1355 69.0797 49.5114 68.6123 48.9724C67.9671 48.3802 67.2262 47.95 66.3897 47.6845C65.4683 47.3419 64.5681 46.9489 63.6918 46.5081C62.9562 46.1629 62.2897 45.7168 61.6896 45.1724C61.1399 44.6732 60.7177 44.0863 60.4203 43.4065C60.1494 42.6338 60.0458 41.8372 60.1016 41.0219C60.0804 40.2758 60.2078 39.5561 60.484 38.8604C60.7602 38.1673 61.1611 37.5566 61.6896 37.0308C62.2499 36.4944 62.8845 36.0695 63.5935 35.7588C64.3025 35.4455 65.0461 35.2649 65.8188 35.2171V32.0996H68.0414V35.2808C68.8142 35.3605 69.5471 35.5836 70.2322 35.95C70.9199 36.3165 71.5121 36.7971 72.0113 37.3946C72.5132 38.0505 72.8876 38.7728 73.1346 39.5588C73.3842 40.3448 73.4904 41.1521 73.4559 41.9753H69.2629C69.3373 41.0246 69.0983 40.1616 68.5486 39.3835C68.3176 39.0967 68.0335 38.879 67.6989 38.7276C67.3616 38.5763 67.0111 38.5099 66.6446 38.5258C65.9436 38.4807 65.3408 38.7037 64.8336 39.1923C64.361 39.7101 64.1459 40.3209 64.183 41.0219C64.1512 41.6938 64.3636 42.2753 64.8177 42.7692C65.5108 43.38 66.2941 43.8288 67.1678 44.1209C68.1317 44.4979 69.0691 44.9308 69.9799 45.4247C70.6703 45.7938 71.297 46.2559 71.852 46.8082C72.3565 47.3154 72.7416 47.8969 73.0124 48.5581C73.2992 49.2937 73.4373 50.0585 73.424 50.8471C73.4453 51.5933 73.3178 52.3103 73.0416 53.0007C72.7681 53.6911 72.3645 54.2992 71.8361 54.825C71.2651 55.3614 70.6199 55.7863 69.9002 56.0943C69.178 56.4024 68.4265 56.5776 67.6458 56.6201V59.4827H65.4205V56.6042C64.5548 56.5564 63.7263 56.3519 62.935 55.9881C62.1463 55.627 61.4506 55.133 60.8478 54.5064C60.2875 53.8425 59.8706 53.099 59.5971 52.2731C59.3209 51.4499 59.2094 50.6028 59.2598 49.7345H63.405C63.3386 50.7144 63.6068 51.588 64.2149 52.3581C64.515 52.6794 64.8681 52.921 65.2771 53.083C65.686 53.245 66.1109 53.3114 66.5491 53.2822C67.3032 53.322 67.9697 53.099 68.5486 52.613C69.0531 52.1324 69.2895 51.5429 69.2629 50.8471Z" fill="black"/>
<g style="mix-blend-mode:multiply">
<path d="M27.658 19.6794C26.7923 19.6582 25.9266 19.6821 25.0609 19.7458C24.1952 19.8122 23.3375 19.9184 22.4825 20.0698C21.6274 20.2212 20.783 20.415 19.9492 20.6513C19.1127 20.885 18.2922 21.1612 17.4849 21.4798C16.6776 21.7958 15.889 22.1543 15.1162 22.55C14.3462 22.9457 13.5947 23.3812 12.8671 23.8512C12.1368 24.3238 11.4331 24.831 10.756 25.3727C10.0788 25.9145 9.42825 26.488 8.80687 27.0935C8.18815 27.7016 7.59864 28.3362 7.04099 29.0028C6.48335 29.6666 5.96022 30.3597 5.47162 31.0767C4.98301 31.7936 4.53158 32.5345 4.11733 33.2966C3.70043 34.0614 3.32601 34.8421 2.98876 35.6414C2.65152 36.4433 2.35676 37.2586 2.09919 38.0871C1.84426 38.9182 1.63182 39.76 1.45922 40.6098C1.28662 41.4622 1.15915 42.3199 1.07152 43.1829C0.986549 44.0486 0.941406 44.9143 0.941406 45.7826C0.941406 46.6509 0.986549 47.5193 1.07152 48.3823C1.15915 49.248 1.28662 50.1057 1.45922 50.9554C1.63182 51.8078 1.84426 52.6469 2.09919 53.4781C2.35676 54.3093 2.65152 55.1245 2.98876 55.9238C3.32601 56.7231 3.70043 57.5064 4.11733 58.2685C4.53158 59.0307 4.98301 59.7715 5.47162 60.4885C5.96022 61.2081 6.48335 61.8986 7.04099 62.5651C7.59864 63.2289 8.18815 63.8662 8.80687 64.4717C9.42825 65.0798 10.0788 65.6534 10.756 66.1951C11.4331 66.7368 12.1368 67.244 12.8671 67.714C13.5947 68.1867 14.3462 68.6195 15.1162 69.0152C15.889 69.4135 16.6776 69.7693 17.4849 70.0853C18.2922 70.404 19.1127 70.6801 19.9492 70.9165C20.783 71.1502 21.6274 71.344 22.4825 71.4954C23.3375 71.6467 24.1952 71.7556 25.0609 71.8193C25.9266 71.8857 26.7923 71.907 27.658 71.8857C28.6352 71.8831 29.6097 71.8246 30.5816 71.7105C29.7929 71.6228 29.0096 71.5007 28.2342 71.3414C27.4561 71.182 26.6887 70.9882 25.9293 70.7572C25.1698 70.5288 24.4236 70.2659 23.6881 69.9685C22.9551 69.6711 22.2329 69.3391 21.5292 68.9753C20.8255 68.6115 20.1377 68.2185 19.4685 67.791C18.7994 67.3635 18.1514 66.9094 17.5247 66.4235C16.898 65.9375 16.2926 65.425 15.7137 64.8833C15.1322 64.3416 14.5772 63.776 14.0487 63.1838C13.5203 62.5943 13.0184 61.9782 12.5458 61.3409C12.0731 60.7036 11.6323 60.0477 11.218 59.3679C10.8064 58.6908 10.424 57.995 10.0762 57.2834C9.72566 56.5717 9.40966 55.8441 9.12553 55.1006C8.84405 54.3597 8.59443 53.6082 8.37934 52.8434C8.1669 52.0787 7.98633 51.3059 7.84294 50.5252C7.69955 49.7445 7.59067 48.9585 7.51897 48.1672C7.44728 47.3785 7.4101 46.5845 7.4101 45.7906C7.4101 44.9966 7.44728 44.2052 7.51897 43.4139C7.59067 42.6226 7.69955 41.8366 7.84294 41.0559C7.98633 40.2752 8.1669 39.5051 8.37934 38.7403C8.59443 37.9755 8.84405 37.2214 9.12553 36.4805C9.40966 35.7396 9.72566 35.0121 10.0762 34.2977C10.424 33.5861 10.8064 32.8903 11.218 32.2132C11.6323 31.5361 12.0731 30.8775 12.5458 30.2402C13.0184 29.6029 13.5203 28.9895 14.0487 28.3973C14.5772 27.8051 15.1322 27.2395 15.7137 26.6978C16.2926 26.1588 16.898 25.6436 17.5247 25.1577C18.1514 24.6744 18.7994 24.2176 19.4685 23.7901C20.1377 23.3652 20.8255 22.9696 21.5292 22.6058C22.2329 22.242 22.9551 21.9127 23.6881 21.6153C24.4236 21.3179 25.1698 21.0523 25.9293 20.8239C26.6887 20.5956 27.4561 20.4017 28.2342 20.2424C29.0096 20.0831 29.7929 19.9583 30.5816 19.8706C29.6097 19.7511 28.6378 19.6874 27.658 19.6794Z" fill="#B47E19"/>
</g>
<g style="mix-blend-mode:multiply">
<path d="M63.9597 19.6797C63.0542 19.6797 62.1513 19.6797 61.2617 19.8231C62.053 19.9081 62.8417 20.0276 63.6224 20.1816C64.4031 20.3382 65.1759 20.5294 65.9406 20.7551C66.7054 20.9835 67.4569 21.2438 68.1978 21.5412C68.936 21.8359 69.6609 22.1652 70.3726 22.5263C71.0816 22.8901 71.7747 23.2831 72.4492 23.708C73.121 24.1355 73.7742 24.5923 74.4062 25.0756C75.0409 25.5615 75.649 26.0767 76.2332 26.6184C76.82 27.1601 77.3777 27.7284 77.9114 28.3205C78.4452 28.9127 78.9497 29.5288 79.425 30.1687C79.903 30.8087 80.3491 31.4673 80.7661 32.1497C81.183 32.8295 81.568 33.5279 81.9185 34.2422C82.2717 34.9592 82.5904 35.6894 82.8771 36.4356C83.1613 37.1791 83.4135 37.936 83.6286 38.7034C83.8464 39.4708 84.027 40.2489 84.1703 41.0322C84.3164 41.8182 84.4253 42.6069 84.4996 43.4009C84.5713 44.1975 84.6085 44.9942 84.6085 45.7908C84.6085 46.5901 84.5713 47.3867 84.4996 48.1807C84.4253 48.9747 84.3164 49.766 84.1703 50.5494C84.027 51.3354 83.8464 52.1108 83.6286 52.8782C83.4135 53.6456 83.1613 54.4024 82.8771 55.1486C82.5904 55.8922 82.2717 56.6224 81.9185 57.3394C81.568 58.0564 81.183 58.7521 80.7661 59.4345C80.3491 60.1143 79.903 60.7729 79.425 61.4128C78.9497 62.0528 78.4452 62.6689 77.9114 63.261C77.3777 63.8559 76.82 64.4215 76.2332 64.9632C75.649 65.5049 75.0409 66.0201 74.4062 66.506C73.7742 66.992 73.121 67.446 72.4492 67.8736C71.7747 68.2984 71.0816 68.6941 70.3726 69.0553C69.6609 69.419 68.936 69.7457 68.1978 70.0431C67.4569 70.3378 66.7054 70.6007 65.9406 70.8264C65.1759 71.0522 64.4031 71.2433 63.6224 71.4C62.8417 71.5567 62.053 71.6762 61.2617 71.7585C62.1513 71.8382 63.0542 71.886 63.9597 71.886C64.7669 71.886 65.5742 71.8488 66.3761 71.7744C67.1807 71.7001 67.98 71.5886 68.7714 71.4399C69.5653 71.2911 70.3513 71.1079 71.1267 70.8849C71.9021 70.6645 72.6669 70.4069 73.4211 70.1148C74.1726 69.82 74.9108 69.4934 75.6304 69.1323C76.3527 68.7711 77.0564 68.3781 77.7441 67.9506C78.4292 67.5231 79.0931 67.0663 79.7357 66.5777C80.3784 66.0891 80.9971 65.5713 81.5946 65.0269C82.1894 64.4799 82.7576 63.9063 83.2994 63.3088C83.8411 62.7087 84.3536 62.0873 84.8395 61.4394C85.3228 60.7941 85.7769 60.125 86.1991 59.4372C86.6213 58.7468 87.009 58.0404 87.3675 57.3155C87.7233 56.5905 88.0473 55.8497 88.3341 55.0955C88.6236 54.3414 88.8758 53.5739 89.0909 52.7959C89.3087 52.0178 89.4892 51.2292 89.6326 50.4352C89.7787 49.6386 89.8849 48.8393 89.9539 48.0347C89.9539 47.2858 90.0495 46.5396 90.0495 45.7749C90.0495 44.9198 90.007 44.0674 89.9221 43.2177C89.8371 42.3653 89.7096 41.5208 89.5423 40.6817C89.375 39.8452 89.1679 39.0167 88.9183 38.1988C88.6713 37.381 88.3819 36.5764 88.0553 35.7877C87.726 34.9964 87.3622 34.2263 86.9586 33.4721C86.5549 32.718 86.1168 31.9851 85.6415 31.2761C85.1661 30.5644 84.659 29.8793 84.1172 29.2181C83.5729 28.5595 83.0019 27.9249 82.3965 27.3221C81.7937 26.7166 81.1617 26.1457 80.5005 25.6014C79.8393 25.0596 79.1542 24.5525 78.4452 24.0771C77.7335 23.6018 77.0033 23.1636 76.2491 22.76C75.4976 22.359 74.7249 21.9926 73.9362 21.666C73.1475 21.3393 72.3456 21.0526 71.5277 20.8029C70.7098 20.556 69.884 20.3489 69.0449 20.1816C68.2084 20.0143 67.364 19.8895 66.5142 19.8071C65.6671 19.7222 64.8147 19.6797 63.9597 19.6797Z" fill="#C5C1D7"/>
</g>
<path d="M27.6592 73.4926C26.7537 73.4926 25.8509 73.4475 24.948 73.3572C24.0478 73.2696 23.1529 73.1368 22.2634 72.9589C21.3764 72.7836 20.4975 72.5632 19.6318 72.3003C18.7635 72.0348 17.9111 71.7294 17.0746 71.3842C16.2381 71.0363 15.4202 70.6486 14.6209 70.2211C13.8217 69.7936 13.0463 69.3262 12.2921 68.8244C11.538 68.3198 10.813 67.7808 10.112 67.2045C9.41094 66.6283 8.74176 66.0202 8.1018 65.3776C7.45918 64.7376 6.85373 64.0658 6.2775 63.3647C5.70392 62.6637 5.16486 61.9361 4.66033 61.1819C4.15845 60.4278 3.69109 59.6497 3.26621 58.8505C2.83868 58.0485 2.45099 57.2306 2.10578 56.3915C1.75791 55.555 1.45254 54.7 1.18964 53.8316C0.926754 52.9633 0.706351 52.0844 0.531091 51.1948C0.353176 50.3052 0.220403 49.4103 0.132773 48.5075C0.0424877 47.6046 0 46.6991 0 45.7909C0 44.8854 0.0424877 43.9799 0.132773 43.077C0.220403 42.1742 0.353176 41.2766 0.531091 40.3871C0.706351 39.4975 0.926754 38.6185 1.18964 37.7502C1.45254 36.8819 1.75791 36.0295 2.10578 35.1903C2.45099 34.3539 2.83868 33.5333 3.26621 32.734C3.69109 31.9321 4.15845 31.1567 4.66033 30.4025C5.16486 29.6484 5.70392 28.9208 6.2775 28.2171C6.85373 27.5161 7.45918 26.8469 8.1018 26.2043C8.74176 25.5616 9.41094 24.9535 10.112 24.3773C10.813 23.8037 11.538 23.262 12.2921 22.7601C13.0463 22.2556 13.8217 21.7882 14.6209 21.3607C15.4202 20.9332 16.2381 20.5455 17.0746 20.2003C17.9111 19.8524 18.7635 19.547 19.6318 19.2841C20.4975 19.0213 21.3764 18.8009 22.2634 18.6229C23.1529 18.445 24.0478 18.3123 24.948 18.2246C25.8509 18.1343 26.7537 18.0918 27.6592 18.0918C29.0295 18.0892 30.3917 18.1874 31.746 18.3893C33.1003 18.5884 34.4333 18.8885 35.7425 19.2895C37.0542 19.6878 38.3262 20.1817 39.5637 20.7712C40.8011 21.3581 41.9881 22.0352 43.122 22.8026C44.2585 23.5674 45.334 24.4118 46.343 25.3386C47.3548 26.2627 48.2921 27.2585 49.1552 28.3233C50.0182 29.3882 50.7962 30.5088 51.492 31.6904C52.1904 32.8721 52.7958 34.0963 53.3083 35.3682C53.8235 36.6402 54.2404 37.9414 54.5617 39.2744C54.883 40.6075 55.1034 41.9564 55.2255 43.324C55.345 44.6889 55.3636 46.0565 55.2813 47.4267C55.199 48.7942 55.0158 50.1485 54.7316 51.4922C54.4475 52.8332 54.0678 54.145 53.5898 55.4302C53.1091 56.7155 52.5382 57.9582 51.877 59.1585C51.2131 60.3588 50.4643 61.5006 49.6331 62.5893C48.7993 63.6781 47.8912 64.7004 46.906 65.6537C45.634 66.9018 44.2532 68.0144 42.7635 68.9943C41.2738 69.9715 39.7044 70.7974 38.0554 71.4692C36.4037 72.1437 34.7042 72.6482 32.9569 72.9881C31.2069 73.328 29.4411 73.4953 27.6592 73.4926ZM27.6592 21.2704C26.8573 21.2704 26.058 21.3103 25.2614 21.3899C24.4621 21.4669 23.6707 21.5864 22.8847 21.7431C22.0961 21.8998 21.3207 22.0936 20.5532 22.3273C19.7858 22.561 19.0317 22.8292 18.2908 23.1372C17.5499 23.4453 16.825 23.7878 16.1186 24.1675C15.4096 24.5446 14.7245 24.9562 14.058 25.4023C13.3888 25.8484 12.7462 26.3264 12.1275 26.8363C11.5061 27.3461 10.9139 27.8852 10.3457 28.4534C9.78005 29.0217 9.24099 29.6139 8.7338 30.2353C8.22395 30.8566 7.74597 31.5019 7.30251 32.1684C6.85639 32.8376 6.44479 33.5254 6.06506 34.2317C5.68799 34.9407 5.34544 35.6657 5.0374 36.4092C4.73202 37.1501 4.46117 37.9042 4.23014 38.6743C3.99646 39.4417 3.80261 40.2198 3.64594 41.0084C3.48927 41.7945 3.37243 42.5884 3.29277 43.3877C3.2131 44.187 3.17593 44.989 3.17593 45.7909C3.17593 46.5955 3.2131 47.3948 3.29277 48.1941C3.37243 48.9934 3.48927 49.7874 3.64594 50.576C3.80261 51.3621 3.99646 52.1401 4.23014 52.9102C4.46117 53.6776 4.73202 54.4318 5.0374 55.1753C5.34544 55.9162 5.68799 56.6411 6.06506 57.3501C6.44479 58.0591 6.85639 58.7469 7.30251 59.4134C7.74597 60.0826 8.22395 60.7252 8.7338 61.3466C9.24099 61.968 9.78005 62.5628 10.3457 63.1311C10.9139 63.6967 11.5061 64.2357 12.1275 64.7456C12.7462 65.2554 13.3888 65.7334 14.058 66.1795C14.7245 66.6256 15.4096 67.0372 16.1186 67.417C16.825 67.794 17.5499 68.1366 18.2908 68.4446C19.0317 68.7527 19.7858 69.0235 20.5532 69.2545C21.3207 69.4882 22.0961 69.6847 22.8847 69.8414C23.6707 69.9981 24.4621 70.1149 25.2614 70.1946C26.058 70.2716 26.8573 70.3114 27.6592 70.3114C29.2366 70.3167 30.8006 70.168 32.3488 69.8653C33.8969 69.5652 35.4026 69.1165 36.8631 68.5216C38.3262 67.9241 39.715 67.1939 41.0321 66.3256C42.3519 65.4572 43.5734 64.4694 44.6993 63.3621C45.2862 62.7938 45.8438 62.199 46.3722 61.575C46.9007 60.9509 47.3973 60.303 47.8593 59.6285C48.324 58.954 48.7515 58.2583 49.1445 57.5413C49.5376 56.8243 49.8934 56.0888 50.212 55.3373C50.5333 54.5831 50.8148 53.8184 51.0565 53.035C51.2981 52.2543 51.4999 51.463 51.6646 50.661C51.8266 49.8617 51.9487 49.0518 52.031 48.2393C52.1133 47.424 52.1532 46.6088 52.1532 45.7909C52.1532 44.973 52.1133 44.1578 52.031 43.3426C51.9487 42.53 51.8266 41.7228 51.6646 40.9208C51.4999 40.1189 51.2981 39.3275 51.0565 38.5468C50.8148 37.7661 50.5333 36.9987 50.212 36.2446C49.8934 35.4931 49.5376 34.7575 49.1445 34.0405C48.7515 33.3235 48.324 32.6278 47.8593 31.9533C47.3973 31.2815 46.9007 30.6309 46.3722 30.0069C45.8438 29.3829 45.2862 28.788 44.6993 28.2198C43.5734 27.1151 42.3492 26.1273 41.0321 25.2616C39.7124 24.3932 38.3236 23.663 36.8631 23.0682C35.4026 22.4707 33.8969 22.0219 32.3488 21.7192C30.8006 21.4191 29.2366 21.2678 27.6592 21.2704Z" fill="black"/>
<path d="M63.9587 73.4927C62.1769 73.4954 60.4084 73.3281 58.6585 72.9882C56.9085 72.6456 55.2064 72.1384 53.5547 71.4666C51.903 70.7921 50.3336 69.9663 48.8412 68.9838C47.3515 68.0039 45.9707 66.8886 44.6987 65.6379C44.3774 65.3219 44.2181 64.9395 44.2207 64.4907C44.2287 64.0473 44.3907 63.6702 44.7147 63.3622C45.3015 62.7939 45.8592 62.1991 46.3876 61.575C46.9134 60.951 47.4099 60.3004 47.872 59.6259C48.334 58.9541 48.7616 58.2584 49.1546 57.5414C49.5476 56.8244 49.9034 56.0889 50.2247 55.3347C50.5434 54.5832 50.8222 53.8158 51.0665 53.0351C51.3081 52.2544 51.51 51.463 51.6719 50.6611C51.8366 49.8591 51.9587 49.0519 52.0411 48.2393C52.1207 47.4241 52.1632 46.6089 52.1632 45.791C52.1632 44.9731 52.1207 44.1579 52.0411 43.3453C51.9587 42.5301 51.8366 41.7228 51.6719 40.9209C51.51 40.1189 51.3081 39.3276 51.0665 38.5469C50.8222 37.7662 50.5434 36.9988 50.2247 36.2473C49.9034 35.4931 49.5476 34.7602 49.1546 34.0433C48.7616 33.3263 48.334 32.6305 47.872 31.9561C47.4099 31.2816 46.9134 30.6336 46.3876 30.0096C45.8592 29.3856 45.3015 28.7881 44.7147 28.2198C44.388 27.9091 44.2234 27.5268 44.2207 27.0753C44.2234 26.6319 44.3827 26.2575 44.6987 25.9468C45.9707 24.696 47.3515 23.5781 48.8412 22.5982C50.3336 21.6184 51.903 20.7899 53.5547 20.118C55.2064 19.4435 56.9085 18.9364 58.6585 18.5965C60.4084 18.2539 62.1769 18.0866 63.9587 18.0919C64.8643 18.0919 65.7698 18.1344 66.67 18.2247C67.5728 18.3123 68.4677 18.4451 69.3573 18.6204C70.2469 18.7983 71.1232 19.0187 71.9915 19.2816C72.8572 19.5445 73.7096 19.8498 74.5487 20.1977C75.3852 20.5429 76.2031 20.9306 77.0024 21.3581C77.8016 21.7857 78.577 22.253 79.3312 22.7549C80.0853 23.2594 80.8129 23.7985 81.514 24.3747C82.2124 24.951 82.8842 25.5591 83.5242 26.2017C84.1668 26.8417 84.7749 27.5135 85.3485 28.2145C85.9247 28.9156 86.4637 29.6458 86.9656 30.4C87.4702 31.1541 87.9349 31.9295 88.3624 32.7315C88.7899 33.5307 89.1776 34.3513 89.5228 35.1878C89.8707 36.0269 90.1761 36.8793 90.439 37.7476C90.7019 38.6159 90.9223 39.4949 91.0975 40.3871C91.2754 41.2767 91.4082 42.1716 91.4958 43.0745C91.5861 43.98 91.6313 44.8828 91.6313 45.791C91.6313 46.6992 91.5861 47.6047 91.4958 48.5075C91.4082 49.4104 91.2754 50.3079 91.0975 51.1975C90.9223 52.0871 90.7019 52.966 90.439 53.8344C90.1761 54.7027 89.8707 55.5551 89.5228 56.3942C89.1776 57.2334 88.7899 58.0512 88.3624 58.8532C87.9349 59.6525 87.4702 60.4305 86.9656 61.1847C86.4637 61.9388 85.9247 62.6664 85.3485 63.3675C84.7749 64.0685 84.1668 64.7403 83.5242 65.383C82.8842 66.0229 82.2124 66.631 81.514 67.2073C80.8129 67.7835 80.0853 68.3225 79.3312 68.8271C78.577 69.3316 77.8016 69.7963 77.0024 70.2239C76.2031 70.6514 75.3852 71.0391 74.5487 71.3869C73.7096 71.7322 72.8572 72.0375 71.9915 72.3004C71.1232 72.5633 70.2469 72.7837 69.3573 72.9616C68.4677 73.1369 67.5728 73.2697 66.67 73.3599C65.7698 73.4476 64.8643 73.4927 63.9587 73.4927ZM48.0791 64.4429C49.1758 65.3883 50.3469 66.2247 51.5896 66.9603C52.835 67.6932 54.1362 68.3093 55.4905 68.8111C56.8474 69.313 58.2362 69.6875 59.6596 69.9397C61.0802 70.192 62.5142 70.3168 63.9587 70.3115C64.7607 70.3115 65.56 70.2717 66.3593 70.1946C67.1586 70.115 67.9499 69.9981 68.7359 69.8415C69.5219 69.6848 70.3 69.4883 71.0674 69.2546C71.8348 69.0236 72.589 68.7527 73.3299 68.4447C74.0707 68.1367 74.7957 67.7941 75.502 67.417C76.2084 67.0373 76.8961 66.6257 77.5627 66.1796C78.2292 65.7335 78.8718 65.2555 79.4932 64.7456C80.1119 64.2358 80.7067 63.6967 81.2723 63.1311C81.8406 62.5629 82.377 61.968 82.8868 61.3467C83.3967 60.7253 83.872 60.0827 84.3181 59.4135C84.7643 58.747 85.1758 58.0592 85.5529 57.3502C85.9327 56.6412 86.2752 55.9162 86.5806 55.1754C86.8886 54.4319 87.1568 53.6777 87.3905 52.9103C87.6242 52.1402 87.818 51.3621 87.9747 50.5761C88.1314 49.7875 88.2482 48.9935 88.3279 48.1942C88.4049 47.3949 88.4447 46.5956 88.4447 45.791C88.4447 44.989 88.4049 44.1871 88.3279 43.3878C88.2482 42.5885 88.1314 41.7945 87.9747 41.0085C87.818 40.2198 87.6242 39.4418 87.3905 38.6744C87.1568 37.9043 86.8886 37.1501 86.5806 36.4093C86.2752 35.6657 85.9327 34.9408 85.5529 34.2318C85.1758 33.5254 84.7643 32.8377 84.3181 32.1685C83.872 31.502 83.3967 30.8567 82.8868 30.2353C82.377 29.6139 81.8406 29.0218 81.2723 28.4535C80.7067 27.8852 80.1119 27.3462 79.4932 26.8363C78.8718 26.3265 78.2292 25.8485 77.5627 25.4024C76.8961 24.9563 76.2084 24.5447 75.502 24.1676C74.7957 23.7879 74.0707 23.4453 73.3299 23.1373C72.589 22.8293 71.8348 22.5611 71.0674 22.3274C70.3 22.0937 69.5219 21.8998 68.7359 21.7432C67.9499 21.5865 67.1586 21.467 66.3593 21.39C65.56 21.3103 64.7607 21.2705 63.9587 21.2705C62.5142 21.2678 61.0802 21.39 59.6596 21.6423C58.2362 21.8945 56.8474 22.2716 55.4905 22.7708C54.1362 23.2727 52.835 23.8888 51.5896 24.6243C50.3469 25.3573 49.1758 26.1964 48.0791 27.1391C48.6553 27.7684 49.2024 28.4243 49.7175 29.1041C50.2327 29.7839 50.7133 30.4876 51.1648 31.2125C51.6135 31.9375 52.0304 32.681 52.4102 33.4458C52.7926 34.2105 53.1378 34.9886 53.4458 35.7852C53.7538 36.5819 54.0273 37.3891 54.261 38.2097C54.4947 39.0329 54.6885 39.8614 54.8479 40.7005C55.0045 41.5396 55.1214 42.384 55.201 43.2364C55.2807 44.0862 55.3205 44.9386 55.3205 45.791C55.3205 46.646 55.2807 47.4984 55.201 48.3482C55.1214 49.1979 55.0045 50.0424 54.8479 50.8815C54.6885 51.7206 54.4947 52.5518 54.261 53.3723C54.0273 54.1929 53.7538 55.0028 53.4458 55.7968C53.1378 56.5934 52.7926 57.3741 52.4102 58.1362C52.0304 58.901 51.6135 59.6445 51.1648 60.3694C50.7133 61.0944 50.2327 61.7981 49.7175 62.4779C49.2024 63.1603 48.6553 63.8136 48.0791 64.4429Z" fill="black"/>
<mask id="mask0_3_3024" style="mask-type:luminance" maskUnits="userSpaceOnUse" x="22" y="0" width="48" height="13">
<path d="M22.666 0H69.572V12.154H22.666V0Z" fill="white"/>
</mask>
<g mask="url(#mask0_3_3024)">
<path d="M24.8159 11.5221C24.4176 11.5221 24.0671 11.3894 23.767 11.1265C23.5254 10.9087 23.366 10.6405 23.289 10.3245C23.2094 10.0085 23.228 9.69783 23.3395 9.39245L26.1649 1.63321C26.2366 1.43405 26.3455 1.25879 26.4862 1.10212C26.6269 0.945444 26.7942 0.823293 26.9854 0.735663C27.1766 0.645377 27.3758 0.594924 27.5856 0.586958C27.7953 0.576336 27.9998 0.608201 28.199 0.679899C28.3981 0.751596 28.5761 0.857814 28.7327 1.00121C28.8894 1.1446 29.0142 1.3119 29.1018 1.50575C29.1921 1.69694 29.2399 1.90141 29.2505 2.11385C29.2585 2.32363 29.224 2.53075 29.1523 2.72991L27.5643 6.84852C29.1868 6.1528 30.8438 5.5447 32.5327 5.02423C34.2189 4.50376 35.9317 4.07357 37.6657 3.73633C39.3997 3.39643 41.1443 3.14947 42.9049 2.99811C44.6655 2.8441 46.4287 2.78302 48.1946 2.81754C49.9604 2.84941 51.721 2.97687 53.4736 3.19727C55.2262 3.41767 56.9602 3.73102 58.681 4.13465C60.4017 4.53828 62.0959 5.03219 63.7609 5.61639C65.4285 6.20059 67.0616 6.86977 68.6575 7.62657C68.8461 7.71951 69.008 7.84432 69.1461 7.99834C69.2816 8.15501 69.3851 8.33292 69.4542 8.52943C69.5232 8.72593 69.5524 8.92775 69.5418 9.13487C69.5312 9.342 69.4834 9.54116 69.3931 9.7297C69.3055 9.91823 69.1833 10.0829 69.0319 10.2236C68.8779 10.3644 68.7053 10.4732 68.5088 10.5449C68.315 10.6166 68.1132 10.6511 67.906 10.6432C67.6962 10.6379 67.4971 10.5901 67.3085 10.5051C65.6781 9.7297 64.0078 9.04724 62.3004 8.4657C60.5902 7.8815 58.8536 7.3982 57.0904 7.01582C55.3245 6.63609 53.5427 6.35726 51.7476 6.182C49.9498 6.00674 48.1494 5.93505 46.3437 5.96957C44.538 6.00143 42.7403 6.13952 40.9531 6.38382C39.1634 6.62547 37.3948 6.97068 35.6449 7.41679C33.8949 7.86556 32.1769 8.41259 30.4906 9.05787C28.8044 9.7058 27.1634 10.4467 25.5621 11.2858C25.3337 11.4265 25.0841 11.5062 24.8159 11.5221Z" fill="white"/>
</g>
<path d="M31.5179 14.7824C31.2736 14.7824 31.0399 14.732 30.8195 14.6231L24.1676 11.3649C23.979 11.2719 23.8144 11.1445 23.6737 10.9878C23.5356 10.8285 23.4294 10.6506 23.363 10.4487C23.2939 10.2496 23.2674 10.0451 23.2807 9.83533C23.2913 9.6229 23.3444 9.42374 23.4373 9.23254C23.5303 9.04401 23.6551 8.87937 23.8144 8.73863C23.9711 8.60055 24.1516 8.49433 24.3508 8.42794C24.55 8.3589 24.7544 8.32969 24.9642 8.34297C25.174 8.35624 25.3758 8.40935 25.5643 8.50229L32.2189 11.7765C32.3756 11.8588 32.5163 11.9624 32.6385 12.0898C32.7606 12.2173 32.8589 12.3633 32.9359 12.5227C33.0102 12.6846 33.0554 12.8519 33.074 13.0298C33.0926 13.2051 33.0819 13.3804 33.0421 13.553C32.9996 13.7256 32.9332 13.8876 32.8403 14.0389C32.7447 14.1876 32.6305 14.3177 32.4924 14.4293C32.3543 14.5408 32.2003 14.6284 32.0357 14.6869C31.8684 14.7479 31.6958 14.7798 31.5179 14.7824Z" fill="white"/>
<path d="M63.4987 90.9994C63.3075 90.9994 63.1217 90.9675 62.9437 90.9038C62.7446 90.8294 62.5667 90.7206 62.4127 90.5772C62.2586 90.4338 62.1365 90.2665 62.0489 90.0726C61.9612 89.8814 61.9134 89.677 61.9055 89.4672C61.8975 89.2548 61.932 89.0503 62.0064 88.8511L63.5147 84.7325C61.8922 85.4256 60.2378 86.031 58.5516 86.5515C56.8654 87.0693 55.1579 87.4968 53.4266 87.8341C51.6952 88.1713 49.9506 88.4156 48.1953 88.5697C46.4374 88.721 44.6769 88.7821 42.9136 88.7476C41.1531 88.713 39.3952 88.5882 37.6452 88.3678C35.8953 88.1501 34.1612 87.8367 32.4458 87.4358C30.7277 87.0321 29.0362 86.5409 27.3712 85.9593C25.7063 85.3778 24.0758 84.7086 22.4826 83.9545C22.2914 83.8642 22.1267 83.7394 21.9833 83.5827C21.8426 83.426 21.7364 83.2481 21.6647 83.049C21.593 82.8498 21.5638 82.6453 21.5744 82.4329C21.585 82.2231 21.6355 82.0213 21.7257 81.8301C21.8187 81.6389 21.9408 81.4743 22.0975 81.3309C22.2542 81.1901 22.4321 81.0839 22.6313 81.0122C22.8304 80.9432 23.0349 80.9113 23.2447 80.9246C23.4571 80.9352 23.6563 80.9857 23.8475 81.076C25.4779 81.854 27.1482 82.5338 28.8556 83.118C30.5658 83.6995 32.3024 84.1828 34.0683 84.5652C35.8315 84.9476 37.6133 85.2264 39.4084 85.4017C41.2062 85.577 43.0066 85.646 44.8123 85.6141C46.618 85.5796 48.4157 85.4415 50.2055 85.1999C51.9926 84.9582 53.7638 84.613 55.5111 84.1643C57.2611 83.7181 58.9792 83.1711 60.6654 82.5232C62.3516 81.8779 63.9953 81.1344 65.5939 80.2979C65.886 80.1465 66.1914 80.0908 66.518 80.1306C66.842 80.1704 67.1287 80.2979 67.373 80.513C67.62 80.7307 67.782 80.9963 67.8643 81.3149C67.944 81.6336 67.9307 81.9443 67.8165 82.2523L64.9911 90.0116C64.8663 90.3143 64.6698 90.5559 64.3963 90.7365C64.1228 90.9171 63.8254 91.0047 63.4987 90.9994Z" fill="white"/>
<path d="M66.3255 83.2409C66.0812 83.2409 65.8475 83.1878 65.6271 83.0816L58.9911 79.8047C58.784 79.7224 58.6061 79.6029 58.4521 79.4436C58.2954 79.2869 58.1785 79.1037 58.1015 78.8992C58.0219 78.6921 57.9873 78.477 57.998 78.2566C58.0086 78.0362 58.0617 77.8264 58.16 77.6299C58.2555 77.4308 58.3883 77.2608 58.5583 77.1174C58.7256 76.974 58.9168 76.8705 59.1265 76.8067C59.339 76.743 59.5541 76.7244 59.7718 76.751C59.9922 76.7775 60.1967 76.8466 60.3879 76.9581L67.0239 80.1393C67.2283 80.2296 67.4036 80.3597 67.5523 80.5244C67.701 80.6917 67.8099 80.8802 67.8789 81.09C67.948 81.3024 67.9719 81.5202 67.9506 81.7406C67.9294 81.9636 67.863 82.1708 67.7541 82.3646C67.6187 82.6355 67.4222 82.8479 67.1646 83.0072C66.907 83.1639 66.6282 83.2409 66.3255 83.2409Z" fill="white"/>
<path d="M29.2792 32.1155H26.977V35.1852C26.2042 35.2357 25.4633 35.4162 24.7543 35.7296C24.0453 36.0403 23.4107 36.4625 22.8504 36.9989C22.3193 37.5247 21.9183 38.1354 21.6421 38.8285C21.366 39.5216 21.2385 40.2438 21.2624 40.99C21.2385 41.8318 21.3872 42.6417 21.7059 43.4224C22.0033 44.0996 22.4282 44.6891 22.9752 45.1883C23.562 45.7247 24.2073 46.1761 24.9137 46.5399C25.7926 46.9754 26.6928 47.3631 27.6116 47.7004C28.4826 47.9473 29.2553 48.3722 29.9325 48.9723C30.4025 49.5087 30.6202 50.1328 30.5831 50.8471C30.599 51.1896 30.5432 51.5189 30.4158 51.8349C30.2883 52.1509 30.0998 52.4271 29.8528 52.6608C29.2739 53.1494 28.6074 53.3724 27.8506 53.3299C27.4151 53.3538 26.9929 53.2874 26.5866 53.1308C26.1777 52.9714 25.8218 52.7351 25.5164 52.4218C24.911 51.6464 24.6428 50.7648 24.7065 49.7822H20.5136C20.4631 50.6506 20.5773 51.4977 20.8508 52.3209C21.1243 53.1467 21.5412 53.8902 22.1015 54.5541C22.7176 55.1808 23.4293 55.6747 24.2312 56.0305C25.0358 56.389 25.8776 56.5855 26.7565 56.62V59.4667H28.9792V56.6041C29.7492 56.5563 30.4901 56.3757 31.1991 56.0677C31.9081 55.7597 32.5454 55.3401 33.1057 54.809C33.6342 54.2859 34.0352 53.6805 34.3113 52.9927C34.5875 52.3049 34.715 51.5906 34.6937 50.8471C34.707 50.0558 34.5742 49.2857 34.298 48.5421C34.0219 47.8809 33.6315 47.2994 33.1217 46.7922C32.5667 46.2478 31.948 45.7858 31.2655 45.4087C30.3494 44.9201 29.4067 44.4846 28.4375 44.1049C27.5638 43.8128 26.7804 43.364 26.0874 42.7532C25.6306 42.262 25.4182 41.6778 25.4527 41.006C25.4155 40.297 25.6333 39.6756 26.1033 39.1445C26.6158 38.6532 27.2239 38.4302 27.9303 38.478C28.2967 38.462 28.6499 38.5311 28.9845 38.6824C29.3191 38.8338 29.6032 39.0515 29.8369 39.3357C30.3706 40.119 30.6043 40.9821 30.5353 41.9274H34.6937C34.7335 41.1016 34.6273 40.297 34.3804 39.5083C34.1308 38.7223 33.7537 38 33.2491 37.3467C32.7499 36.7519 32.1577 36.2686 31.47 35.9048C30.7849 35.5384 30.0546 35.3153 29.2792 35.233V32.0518V32.1155Z" fill="black"/>
<path d="M68.0417 32.0989H65.7076V35.1686C64.9348 35.2164 64.194 35.397 63.4823 35.7103C62.7733 36.021 62.1386 36.4459 61.5783 36.9823C61.0658 37.524 60.6808 38.1454 60.4232 38.8491C60.1683 39.5501 60.0594 40.275 60.1019 41.0212C60.0833 41.863 60.2373 42.6756 60.564 43.4536C60.8587 44.1334 61.2836 44.7203 61.8333 45.2195C62.4122 45.7586 63.0574 46.2047 63.7691 46.5552C64.6481 46.9987 65.5483 47.3917 66.4697 47.7316C67.3062 47.9971 68.047 48.4273 68.6923 49.0195C69.1597 49.5585 69.3774 50.1825 69.3429 50.8942C69.3615 51.2368 69.3057 51.566 69.1783 51.882C69.0508 52.198 68.8623 52.4742 68.6127 52.7079C68.0338 53.1938 67.3672 53.4169 66.6131 53.3771C66.1749 53.4063 65.7501 53.3399 65.3411 53.1779C64.9322 53.0159 64.579 52.7743 64.2789 52.453C63.6708 51.6829 63.4026 50.8092 63.469 49.8294H59.2442C59.1937 50.6977 59.3053 51.5448 59.5814 52.368C59.855 53.1938 60.2719 53.9374 60.8322 54.6012C61.435 55.2279 62.1307 55.7218 62.922 56.083C63.7107 56.4468 64.5392 56.6512 65.4049 56.699V59.5457H67.6912V56.6831C68.4746 56.6406 69.2261 56.4654 69.9483 56.1573C70.668 55.8466 71.3132 55.4244 71.8842 54.8854C72.4126 54.3622 72.8136 53.7541 73.0898 53.0637C73.3659 52.3733 73.4934 51.6563 73.4721 50.9101C73.4854 50.1215 73.3473 49.3567 73.0605 48.6211C72.7897 47.9599 72.4046 47.3784 71.9001 46.8712C71.3451 46.3189 70.7184 45.8568 70.028 45.4877C69.1172 44.9938 68.1798 44.5609 67.2159 44.1839C66.3343 43.8652 65.5509 43.3819 64.8658 42.7366C64.4117 42.2427 64.1993 41.6612 64.2311 40.9894C64.178 40.2777 64.3905 39.659 64.8658 39.1279C65.373 38.6393 65.9758 38.4162 66.6768 38.4614C67.0433 38.4428 67.3965 38.5118 67.731 38.6632C68.0656 38.8145 68.3498 39.0323 68.5808 39.3191C69.1305 40.0971 69.3695 40.9601 69.2951 41.9108H73.4562C73.4907 41.0876 73.3845 40.2804 73.1349 39.4943C72.8879 38.7083 72.5135 37.986 72.0116 37.3301C71.5124 36.7327 70.9202 36.252 70.2325 35.8856C69.5474 35.5191 68.8145 35.2961 68.0417 35.2164V32.0352V32.0989Z" fill="black"/>
<defs>
<linearGradient id="paint0_linear_3_3024" x1="1.5293" y1="45.9471" x2="53.5816" y2="45.9471" gradientUnits="userSpaceOnUse">
<stop stop-color="#985C2D"/>
<stop offset="1" stop-color="#FE9A4C"/>
</linearGradient>
<linearGradient id="paint1_linear_3_3024" x1="45.8086" y1="45.7806" x2="90.0485" y2="45.7806" gradientUnits="userSpaceOnUse">
<stop stop-color="#2B6CA2"/>
<stop offset="1" stop-color="#10283C"/>
</linearGradient>
</defs>
</svg>
