<svg width="46" height="46" viewBox="0 0 46 46" fill="none" xmlns="http://www.w3.org/2000/svg">
<path d="M46 7.99862C44.2894 8.76154 42.4666 9.26723 40.5662 9.51277C42.5212 8.326 44.0134 6.46108 44.7149 4.21323C42.8921 5.31815 40.8796 6.09862 38.7349 6.53415C37.0041 4.66046 34.5374 3.5 31.8464 3.5C26.6254 3.5 22.4221 7.80862 22.4221 13.0906C22.4221 13.8506 22.4854 14.5814 22.6406 15.2771C14.8005 14.8883 7.86312 11.0678 3.20275 5.248C2.38912 6.68323 1.91188 8.326 1.91188 10.0945C1.91188 13.4151 3.59375 16.3586 6.10075 18.0628C4.58562 18.0335 3.09925 17.5863 1.84 16.8818C1.84 16.9111 1.84 16.9491 1.84 16.9871C1.84 21.6465 5.10887 25.5166 9.3955 26.4082C8.62787 26.6215 7.79125 26.7238 6.923 26.7238C6.31925 26.7238 5.70975 26.6888 5.13762 26.5602C6.3595 30.3572 9.82675 33.1488 13.9495 33.2394C10.741 35.7912 6.66713 37.3288 2.25688 37.3288C1.4835 37.3288 0.74175 37.2937 0 37.1972C4.17737 39.9362 9.12813 41.5 14.467 41.5C31.8205 41.5 41.308 26.8846 41.308 14.216C41.308 13.7922 41.2936 13.3829 41.2735 12.9766C43.1451 11.6262 44.7178 9.93954 46 7.99862Z" fill="white"/>
</svg>
